<?xml version="1.0" encoding="UTF-8" standalone="no"?>
<svg width="762px" height="27px" viewBox="0 0 762 27" version="1.1" xmlns="http://www.w3.org/2000/svg" xmlns:xlink="http://www.w3.org/1999/xlink" xmlns:sketch="http://www.bohemiancoding.com/sketch/ns">
    <!-- Generator: Sketch 3.4.4 (17248) - http://www.bohemiancoding.com/sketch -->
    <title>logos/wirewaxGroup</title>
    <desc>Created with Sketch.</desc>
    <defs>
        <path id="path-1" d="M0,0.216 L130.729,0.216 L130.729,20 L0,20 L0,0.216 Z"></path>
        <path id="path-3" d="M0,0 L82.971358,0 L82.971358,15.0123457 L0,15.0123457"></path>
        <path id="path-5" d="M0,0 L82.971358,0 L82.971358,15.0123457 L0,15.0123457 L0,0 Z"></path>
        <path id="path-7" d="M0,0 L91.5532593,0 L91.5532593,26.2716049 L0,26.2716049 L0,0 Z"></path>
        <path id="path-9" d="M0,0 L58.609125,0 L58.609125,18 L0,18 L0,0 Z"></path>
        <path id="path-11" d="M0,0 L58.609125,0 L58.609125,18 L0,18 L0,0 Z"></path>
        <path id="path-13" d="M0,0 L22.852202,0 L22.852202,25.3333333 L0,25.3333333 L0,0 Z"></path>
        <path id="path-15" d="M0,0.0663037975 L31.2205443,0.0663037975 L31.2205443,18 L0,18"></path>
        <path id="path-17" d="M0,0.4925 L42.5,0.4925 L42.5,18 L0,18"></path>
    </defs>
    <g id="Page-1" stroke="none" stroke-width="1" fill="none" fill-rule="evenodd" sketch:type="MSPage">
        <g id="Work/Wirewax/Large" sketch:type="MSArtboardGroup" transform="translate(-322.000000, -543.000000)">
            <g id="logos/wirewaxGroup" sketch:type="MSLayerGroup" transform="translate(322.000000, 543.000000)">
                <path d="M60.8544863,21.2581399 C60.9146192,21.2581399 61.034885,21.2581399 61.034885,21.198007 C61.034885,21.1378741 60.9747521,21.1378741 60.9146192,21.1378741 L60.7943534,21.1378741 L60.7943534,21.2581399 L60.8544863,21.2581399 L60.8544863,21.2581399 Z M61.2152837,21.3182728 C61.2152837,21.0777412 61.034885,20.9574754 60.8544863,20.9574754 C60.6139548,20.9574754 60.493689,21.1378741 60.493689,21.3182728 C60.493689,21.5588044 60.6740877,21.6790701 60.8544863,21.6790701 C61.0950179,21.6790701 61.2152837,21.4986715 61.2152837,21.3182728 L61.2152837,21.3182728 Z M60.4335561,21.3182728 C60.4335561,21.0777412 60.6139548,20.8973425 60.8544863,20.8973425 C61.0950179,20.8973425 61.2754166,21.0777412 61.2754166,21.3182728 C61.2754166,21.5588044 61.0950179,21.739203 60.8544863,21.739203 C60.6139548,21.739203 60.4335561,21.5588044 60.4335561,21.3182728 L60.4335561,21.3182728 Z M55.2621274,21.7993359 L53.8790709,21.7993359 L53.8790709,22.0398675 L61.4558152,22.0398675 L61.4558152,17.2292362 L61.2152837,17.2292362 C61.2152837,17.2292362 61.2152837,19.9953492 60.3132903,20.8973425 C59.5315627,21.6790701 58.7498351,21.739203 57.3667786,21.739203 L57.3667786,12.9598009 C57.3667786,12.9598009 58.268772,12.899668 58.7498351,13.3205982 C59.4714298,14.0421929 59.5315627,14.9441863 59.5315627,16.1468441 L59.7720943,16.1468441 L59.7720943,9.41196025 L59.5315627,9.41196025 C59.5315627,10.674751 59.4714298,11.5767443 58.7498351,12.2382062 C58.3289049,12.6591364 57.3667786,12.5990035 57.3667786,12.5990035 L57.3667786,4.30066446 C58.6897022,4.30066446 59.351164,4.36079735 60.1328916,5.14252494 C61.034885,6.04451832 61.034885,8.81063133 61.034885,8.81063133 L61.2754166,8.81063133 L61.2754166,4 L53.8790709,4 L53.8790709,4.24053157 L55.2621274,4.24053157 L55.2621274,21.7993359 L55.2621274,21.7993359 Z M39.5073098,4.30066446 L39.5073098,21.7993359 C40.8302334,21.7993359 41.6720939,21.739203 42.4538215,20.9574754 C43.3558149,20.0554821 43.3558149,17.2893691 43.3558149,17.2893691 L43.5963464,17.2893691 L43.5963464,22.1000004 L35.9594692,22.1000004 L35.9594692,21.8594688 L37.3425257,21.8594688 L37.3425257,4.30066446 L35.9594692,4.30066446 L35.9594692,4 L40.7099676,4 L40.7099676,4.24053157 L39.5073098,4.30066446 L39.5073098,4.30066446 Z M21.5877081,4.30066446 L21.5877081,21.7993359 C22.9106317,21.7993359 23.7524922,21.739203 24.5342198,20.9574754 C25.4362132,20.0554821 25.4362132,17.2893691 25.4362132,17.2893691 L25.6767447,17.2893691 L25.6767447,22.1000004 L18.0398675,22.1000004 L18.0398675,21.8594688 L19.422924,21.8594688 L19.422924,4.30066446 L18.0398675,4.30066446 L18.0398675,4 L22.7903659,4 L22.7903659,4.24053157 L21.5877081,4.30066446 L21.5877081,4.30066446 Z M1.38305651,21.7993359 L0,21.7993359 L0,22.0398675 L7.57674435,22.0398675 L7.57674435,17.2292362 L7.33621278,17.2292362 C7.33621278,17.2292362 7.33621278,19.9953492 6.4342194,20.8973425 C5.65249181,21.6790701 4.87076422,21.739203 3.48770771,21.739203 L3.48770771,12.9598009 C3.48770771,12.9598009 4.38970109,12.899668 4.87076422,13.3205982 C5.59235892,14.0421929 5.65249181,14.9441863 5.65249181,16.1468441 L5.89302338,16.1468441 L5.89302338,9.41196025 L5.65249181,9.41196025 C5.65249181,10.674751 5.59235892,11.5767443 4.87076422,12.2382062 C4.44983398,12.6591364 3.48770771,12.5990035 3.48770771,12.5990035 L3.48770771,4.30066446 C4.81063133,4.30066446 5.47209314,4.36079735 6.25382073,5.14252494 C7.1558141,6.04451832 7.1558141,8.81063133 7.1558141,8.81063133 L7.39634567,8.81063133 L7.39634567,4 L0,4 L0,4.24053157 L1.38305651,4.24053157 L1.38305651,21.7993359 Z" id="Ellle" fill="#B3B4B3" sketch:type="MSShapeGroup"></path>
                <g id="lacoste" transform="translate(96.000000, 3.000000)">
                    <mask id="mask-2" sketch:name="Clip 2" fill="white">
                        <use xlink:href="#path-1"></use>
                    </mask>
                    <g id="Clip-2"></g>
                    <path d="M99.5903927,8.30085831 C99.5044647,8.47271421 99.5044647,8.64457011 99.4185368,8.90235396 C99.4185368,8.9882819 99.3326089,8.9882819 99.3326089,8.9882819 C99.160753,8.90235396 98.9029691,8.81642601 98.6451853,8.64457011 C98.5592573,8.64457011 98.5592573,8.55864216 98.6451853,8.55864216 C98.9888971,8.38678626 99.2466809,8.30085831 99.5903927,8.30085831 L99.5903927,8.30085831 Z M98.3014735,7.87121857 C98.2155455,8.04307447 98.2155455,8.21493037 98.2155455,8.47271421 C98.2155455,8.55864216 98.1296176,8.55864216 98.1296176,8.55864216 C97.9577617,8.47271421 97.6999778,8.38678626 97.442194,8.21493037 C97.356266,8.21493037 97.356266,8.12900242 97.442194,8.12900242 C97.6999778,7.95714652 97.9577617,7.87121857 98.3014735,7.87121857 L98.3014735,7.87121857 Z M97.9577617,9.58977755 C97.9577617,9.6757055 97.8718337,9.6757055 97.8718337,9.6757055 C97.6999778,9.58977755 97.442194,9.5038496 97.1844101,9.3319937 C97.0984822,9.3319937 97.0984822,9.24606575 97.1844101,9.24606575 L97.9577617,8.9882819 C98.0436896,8.9882819 98.0436896,8.9882819 98.0436896,9.07420985 L97.9577617,9.58977755 L97.9577617,9.58977755 Z M97.0125542,7.61343472 C96.9266263,7.78529062 96.9266263,7.95714652 96.8406983,8.21493037 C96.8406983,8.30085831 96.7547704,8.30085831 96.7547704,8.30085831 C96.5829145,8.21493037 96.3251306,8.12900242 96.0673468,7.95714652 C95.9814188,7.95714652 95.9814188,7.87121857 96.0673468,7.87121857 C96.3251306,7.69936267 96.6688424,7.61343472 97.0125542,7.61343472 L97.0125542,7.61343472 Z M96.7547704,8.81642601 C96.6688424,8.9882819 96.6688424,9.1601378 96.6688424,9.41792165 C96.6688424,9.5038496 96.5829145,9.5038496 96.5829145,9.5038496 C96.4110586,9.41792165 96.1532747,9.3319937 95.8954909,9.1601378 C95.8095629,9.1601378 95.8095629,9.07420985 95.8954909,9.07420985 C96.0673468,8.90235396 96.4110586,8.81642601 96.7547704,8.81642601 L96.7547704,8.81642601 Z M96.4969865,10.0194173 C96.4110586,10.1912732 96.4110586,10.3631291 96.4110586,10.6209129 C96.4110586,10.7068409 96.3251306,10.7068409 96.3251306,10.7068409 C96.1532747,10.6209129 95.8954909,10.534985 95.6377071,10.3631291 C95.5517791,10.3631291 95.5517791,10.2772011 95.6377071,10.2772011 C95.8095629,10.1053452 96.1532747,10.0194173 96.4969865,10.0194173 C96.4110586,9.93348934 96.4969865,9.93348934 96.4969865,10.0194173 L96.4969865,10.0194173 Z M95.4658512,8.21493037 C95.4658512,8.30085831 95.3799232,8.30085831 95.3799232,8.30085831 C95.2080673,8.21493037 94.9502835,8.12900242 94.6924996,7.95714652 C94.6065717,7.95714652 94.6065717,7.87121857 94.6924996,7.87121857 C94.9502835,7.78529062 95.2080673,7.61343472 95.4658512,7.61343472 C95.5517791,7.61343472 95.5517791,7.61343472 95.5517791,7.69936267 C95.5517791,7.78529062 95.5517791,7.95714652 95.4658512,8.21493037 L95.4658512,8.21493037 Z M95.3799232,8.73049806 C95.3799232,8.90235396 95.2939953,9.07420985 95.2939953,9.3319937 C95.2939953,9.41792165 95.2080673,9.41792165 95.2080673,9.41792165 C95.0362114,9.3319937 94.7784276,9.24606575 94.5206437,9.07420985 C94.4347158,9.07420985 94.4347158,8.9882819 94.5206437,8.9882819 C94.6924996,8.81642601 95.0362114,8.73049806 95.3799232,8.73049806 L95.3799232,8.73049806 Z M95.1221394,9.93348934 C95.0362114,10.1053452 95.0362114,10.2772011 95.0362114,10.534985 C95.0362114,10.6209129 94.9502835,10.6209129 94.9502835,10.6209129 C94.7784276,10.534985 94.5206437,10.449057 94.2628599,10.2772011 C94.1769319,10.2772011 94.1769319,10.1912732 94.2628599,10.1912732 C94.4347158,10.0194173 94.7784276,9.93348934 95.1221394,9.93348934 L95.1221394,9.93348934 Z M94.005076,8.30085831 C93.8332201,8.21493037 93.5754363,8.12900242 93.3176524,7.95714652 C93.2317245,7.95714652 93.2317245,7.87121857 93.3176524,7.87121857 L94.091004,7.61343472 C94.1769319,7.61343472 94.1769319,7.61343472 94.1769319,7.69936267 C94.091004,7.87121857 94.091004,8.04307447 94.005076,8.30085831 C94.091004,8.30085831 94.091004,8.38678626 94.005076,8.30085831 L94.005076,8.30085831 Z M94.005076,8.90235396 C93.9191481,9.07420985 93.9191481,9.24606575 93.9191481,9.5038496 C93.9191481,9.58977755 93.8332201,9.58977755 93.8332201,9.58977755 C93.6613642,9.5038496 93.4035804,9.41792165 93.1457965,9.24606575 C93.0598686,9.24606575 93.0598686,9.1601378 93.1457965,9.1601378 C93.3176524,8.9882819 93.6613642,8.90235396 94.005076,8.90235396 L94.005076,8.90235396 Z M93.7472922,10.1053452 C93.6613642,10.2772011 93.6613642,10.449057 93.5754363,10.7068409 C93.5754363,10.7927688 93.4895083,10.7927688 93.4895083,10.7927688 C93.3176524,10.7068409 93.0598686,10.6209129 92.8020847,10.449057 C92.7161568,10.449057 92.7161568,10.3631291 92.8020847,10.3631291 C93.0598686,10.1912732 93.4035804,10.1053452 93.7472922,10.1053452 L93.7472922,10.1053452 Z M92.6302288,8.55864216 C92.4583729,8.47271421 92.2005891,8.38678626 91.9428053,8.21493037 C91.8568773,8.21493037 91.8568773,8.12900242 91.9428053,8.12900242 L92.7161568,7.87121857 C92.8020847,7.87121857 92.8020847,7.87121857 92.8020847,7.95714652 C92.7161568,8.12900242 92.7161568,8.30085831 92.7161568,8.55864216 L92.6302288,8.55864216 L92.6302288,8.55864216 Z M92.4583729,9.76163344 C92.4583729,9.84756139 92.372445,9.84756139 92.372445,9.84756139 C92.2005891,9.76163344 91.9428053,9.6757055 91.6850214,9.5038496 C91.5990935,9.5038496 91.5990935,9.41792165 91.6850214,9.41792165 L92.4583729,9.1601378 C92.5443009,9.1601378 92.5443009,9.1601378 92.5443009,9.24606575 L92.4583729,9.76163344 L92.4583729,9.76163344 Z M92.2005891,10.9646247 C92.2005891,11.0505527 92.1146611,11.0505527 92.1146611,11.0505527 C91.9428053,10.9646247 91.6850214,10.8786968 91.4272376,10.7068409 C91.3413096,10.7068409 91.3413096,10.6209129 91.4272376,10.6209129 L92.2005891,10.3631291 C92.286517,10.3631291 92.286517,10.3631291 92.286517,10.449057 C92.286517,10.534985 92.2005891,10.7927688 92.2005891,10.9646247 L92.2005891,10.9646247 Z M91.3413096,8.81642601 C91.3413096,8.90235396 91.2553817,8.90235396 91.2553817,8.90235396 C91.0835258,8.81642601 90.8257419,8.73049806 90.5679581,8.55864216 C90.4820301,8.55864216 90.4820301,8.47271421 90.5679581,8.47271421 L91.3413096,8.21493037 C91.4272376,8.21493037 91.4272376,8.21493037 91.4272376,8.30085831 C91.4272376,8.47271421 91.4272376,8.64457011 91.3413096,8.81642601 L91.3413096,8.81642601 Z M91.1694537,9.58977755 C91.0835258,9.76163344 91.0835258,9.93348934 91.0835258,10.1912732 C91.0835258,10.2772011 90.9975978,10.2772011 90.9975978,10.2772011 C90.8257419,10.1912732 90.5679581,10.1053452 90.3101742,9.93348934 C90.2242463,9.93348934 90.2242463,9.84756139 90.3101742,9.84756139 C90.5679581,9.6757055 90.8257419,9.58977755 91.1694537,9.58977755 L91.1694537,9.58977755 Z M90.9116699,10.7927688 C90.8257419,10.9646247 90.8257419,11.1364806 90.8257419,11.3942645 C90.8257419,11.4801924 90.739814,11.4801924 90.739814,11.4801924 C90.5679581,11.3942645 90.3101742,11.3083365 90.0523904,11.1364806 C89.9664624,11.1364806 89.9664624,11.0505527 90.0523904,11.0505527 C90.3101742,10.8786968 90.5679581,10.7927688 90.9116699,10.7927688 L90.9116699,10.7927688 Z M89.8805345,9.24606575 C89.7086786,9.1601378 89.4508947,9.07420985 89.1931109,8.90235396 C89.1071829,8.90235396 89.1071829,8.81642601 89.1931109,8.81642601 L89.9664624,8.55864216 C90.0523904,8.55864216 90.0523904,8.55864216 90.0523904,8.64457011 C89.9664624,8.81642601 89.9664624,8.9882819 89.8805345,9.24606575 C89.9664624,9.24606575 89.8805345,9.3319937 89.8805345,9.24606575 L89.8805345,9.24606575 Z M89.7946065,9.93348934 C89.7086786,10.1053452 89.7086786,10.2772011 89.6227506,10.534985 C89.6227506,10.6209129 89.5368227,10.6209129 89.5368227,10.6209129 C89.3649668,10.534985 89.1071829,10.449057 88.8493991,10.2772011 C88.7634711,10.2772011 88.7634711,10.1912732 88.8493991,10.1912732 C89.1931109,10.0194173 89.4508947,9.93348934 89.7946065,9.93348934 L89.7946065,9.93348934 Z M88.5916152,9.3319937 C88.5916152,9.41792165 88.5056873,9.41792165 88.5056873,9.41792165 C88.3338314,9.3319937 88.0760476,9.24606575 87.8182637,9.07420985 C87.7323358,9.07420985 87.7323358,8.9882819 87.8182637,8.9882819 L88.5916152,8.73049806 C88.6775432,8.73049806 88.6775432,8.73049806 88.6775432,8.81642601 C88.6775432,8.9882819 88.6775432,9.1601378 88.5916152,9.3319937 L88.5916152,9.3319937 Z M88.3338314,10.534985 C88.3338314,10.6209129 88.2479035,10.6209129 88.2479035,10.6209129 C88.0760476,10.534985 87.8182637,10.449057 87.5604799,10.2772011 C87.4745519,10.2772011 87.4745519,10.1912732 87.5604799,10.1912732 L88.3338314,9.93348934 C88.4197593,9.93348934 88.4197593,9.93348934 88.4197593,10.0194173 C88.4197593,10.1053452 88.4197593,10.3631291 88.3338314,10.534985 L88.3338314,10.534985 Z M87.0449122,8.21493037 C86.9589842,8.21493037 86.9589842,8.12900242 87.0449122,8.12900242 C87.302696,8.04307447 87.5604799,7.87121857 87.8182637,7.87121857 C87.9041917,7.87121857 87.9041917,7.87121857 87.9041917,7.95714652 C87.8182637,8.12900242 87.8182637,8.30085831 87.7323358,8.55864216 C87.7323358,8.64457011 87.6464078,8.64457011 87.6464078,8.64457011 C87.5604799,8.47271421 87.302696,8.30085831 87.0449122,8.21493037 L87.0449122,8.21493037 Z M87.1308401,9.84756139 C87.1308401,9.93348934 87.0449122,9.93348934 87.0449122,9.93348934 C86.8730563,9.84756139 86.6152724,9.76163344 86.3574886,9.58977755 C86.2715606,9.58977755 86.2715606,9.5038496 86.3574886,9.5038496 L87.1308401,9.24606575 C87.2167681,9.24606575 87.2167681,9.24606575 87.2167681,9.3319937 C87.2167681,9.5038496 87.2167681,9.6757055 87.1308401,9.84756139 L87.1308401,9.84756139 Z M85.670065,8.55864216 C85.584137,8.55864216 85.584137,8.47271421 85.670065,8.47271421 C85.9278488,8.38678626 86.1856327,8.30085831 86.5293445,8.21493037 C86.6152724,8.21493037 86.6152724,8.21493037 86.6152724,8.30085831 C86.5293445,8.47271421 86.5293445,8.64457011 86.4434165,8.90235396 C86.4434165,8.9882819 86.3574886,8.9882819 86.3574886,8.9882819 C86.1856327,8.73049806 85.9278488,8.64457011 85.670065,8.55864216 L85.670065,8.55864216 Z M85.584137,7.35565088 C85.8419209,7.26972293 86.0997047,7.18379498 86.4434165,7.09786703 C86.5293445,7.09786703 86.5293445,7.09786703 86.5293445,7.18379498 C86.4434165,7.35565088 86.4434165,7.52750677 86.4434165,7.78529062 C86.4434165,7.87121857 86.3574886,7.87121857 86.3574886,7.87121857 C86.1856327,7.78529062 85.9278488,7.69936267 85.670065,7.52750677 C85.4982091,7.35565088 85.4982091,7.35565088 85.584137,7.35565088 L85.584137,7.35565088 Z M85.8419209,6.23858754 L86.6152724,5.9808037 C86.7012004,5.9808037 86.7012004,5.9808037 86.7012004,6.06673164 C86.6152724,6.23858754 86.6152724,6.41044344 86.5293445,6.66822729 C86.5293445,6.75415524 86.4434165,6.75415524 86.4434165,6.75415524 C86.2715606,6.66822729 86.0137768,6.58229934 85.7559929,6.41044344 L85.8419209,6.23858754 L85.8419209,6.23858754 Z M86.7012004,5.20745216 L87.4745519,4.94966831 C87.5604799,4.94966831 87.5604799,4.94966831 87.5604799,5.03559626 C87.4745519,5.20745216 87.4745519,5.37930805 87.4745519,5.6370919 C87.4745519,5.72301985 87.388624,5.72301985 87.388624,5.72301985 C87.2167681,5.6370919 86.9589842,5.55116395 86.7012004,5.37930805 L86.7012004,5.20745216 L86.7012004,5.20745216 Z M87.8182637,6.84008318 C87.7323358,7.01193908 87.7323358,7.18379498 87.6464078,7.44157883 C87.6464078,7.52750677 87.5604799,7.52750677 87.5604799,7.52750677 C87.388624,7.44157883 87.1308401,7.35565088 86.8730563,7.18379498 C86.7871283,7.18379498 86.7871283,7.09786703 86.8730563,7.09786703 C87.2167681,6.92601113 87.4745519,6.84008318 87.8182637,6.84008318 L87.8182637,6.84008318 Z M88.3338314,5.72301985 C88.4197593,5.72301985 88.4197593,5.8089478 88.3338314,5.72301985 C88.3338314,5.9808037 88.3338314,6.15265959 88.2479035,6.32451549 C88.2479035,6.41044344 88.1619755,6.41044344 88.1619755,6.41044344 C87.9901196,6.32451549 87.7323358,6.23858754 87.4745519,6.06673164 C87.388624,6.06673164 87.388624,5.9808037 87.4745519,5.9808037 C87.8182637,5.89487575 88.0760476,5.8089478 88.3338314,5.72301985 L88.3338314,5.72301985 Z M87.8182637,4.52002857 L88.5916152,4.26224472 C88.6775432,4.26224472 88.6775432,4.26224472 88.6775432,4.34817267 C88.5916152,4.52002857 88.5916152,4.69188446 88.5056873,4.94966831 C88.5056873,5.03559626 88.4197593,5.03559626 88.4197593,5.03559626 C88.2479035,4.94966831 87.9901196,4.86374036 87.7323358,4.69188446 C87.7323358,4.52002857 87.7323358,4.52002857 87.8182637,4.52002857 L87.8182637,4.52002857 Z M89.021255,3.91853292 L89.7946065,3.66074908 C89.8805345,3.66074908 89.8805345,3.66074908 89.8805345,3.74667703 C89.7946065,3.91853292 89.7946065,4.09038882 89.7946065,4.34817267 C89.7946065,4.43410062 89.7086786,4.43410062 89.7086786,4.43410062 C89.5368227,4.34817267 89.2790388,4.26224472 89.021255,4.09038882 L89.021255,3.91853292 L89.021255,3.91853292 Z M104.660142,7.35565088 C105.003853,7.35565088 105.261637,7.61343472 105.347565,7.78529062 C105.347565,7.78529062 104.74607,7.87121857 104.574214,7.95714652 C104.402358,7.95714652 104.31643,7.95714652 104.31643,7.78529062 C104.144574,7.61343472 104.31643,7.35565088 104.660142,7.35565088 L104.660142,7.35565088 Z M106.034989,7.35565088 C106.120917,7.18379498 106.206845,7.09786703 106.378701,7.09786703 C106.636485,7.09786703 106.722412,7.35565088 106.722412,7.44157883 L106.206845,7.52750677 C105.949061,7.61343472 105.949061,7.52750677 106.034989,7.35565088 L106.034989,7.35565088 Z M112.135873,11.9957601 C111.878089,11.8239042 111.706233,11.8239042 111.44845,11.7379763 C111.190666,11.6520483 111.104738,11.3083365 110.932882,11.2224086 C110.761026,11.1364806 110.503242,11.4801924 110.417314,11.3942645 C110.245458,11.3942645 110.245458,10.8786968 110.15953,10.8786968 L109.558035,11.0505527 C109.386179,11.0505527 109.386179,10.6209129 109.214323,10.534985 C109.042467,10.449057 108.784683,10.7927688 108.612827,10.7927688 C108.440971,10.7927688 108.440971,10.2772011 108.355043,10.2772011 C108.09726,10.1912732 107.925404,10.534985 107.66762,10.534985 C107.495764,10.534985 107.23798,10.449057 106.894268,10.1912732 C106.80834,10.1053452 106.550557,9.93348934 106.550557,9.93348934 C106.550557,9.93348934 106.378701,9.93348934 106.464629,10.1053452 C106.550557,10.534985 107.323908,10.8786968 108.183188,11.1364806 C109.042467,11.3942645 109.987675,11.6520483 110.503242,11.9098322 C110.846954,12.0816881 111.01881,12.253544 110.846954,12.4253999 C110.761026,12.5972558 110.503242,12.5972558 110.245458,12.4253999 C109.987675,12.3394719 109.987675,12.0816881 109.815819,12.0816881 C109.643963,11.9957601 109.386179,12.4253999 109.214323,12.4253999 C109.042467,12.3394719 108.956539,11.9098322 108.784683,11.9098322 C108.526899,11.8239042 108.269116,12.253544 108.09726,12.167616 C107.925404,12.167616 107.839476,11.6520483 107.753548,11.6520483 C107.495764,11.5661204 107.23798,11.9957601 107.066124,11.9098322 C106.894268,11.9098322 106.80834,11.3942645 106.636485,11.3083365 C106.378701,11.2224086 106.034989,11.5661204 105.691277,11.3942645 C104.574214,10.6209129 104.74607,10.1912732 103.88679,9.93348934 C103.45715,9.76163344 102.855655,9.93348934 102.511943,10.0194173 C101.738591,10.1053452 101.738591,9.41792165 101.738591,9.41792165 C101.996375,9.5038496 102.254159,9.58977755 102.855655,9.41792165 C103.45715,9.1601378 103.800862,9.1601378 104.660142,9.41792165 C105.347565,9.6757055 105.777205,9.41792165 106.034989,9.41792165 C106.120917,9.41792165 106.206845,9.3319937 106.464629,9.5038496 C106.722412,9.6757055 106.894268,9.76163344 106.980196,9.76163344 C107.152052,9.6757055 107.066124,9.24606575 107.409836,9.1601378 L108.09726,9.41792165 C108.269116,9.3319937 108.183188,8.90235396 108.526899,8.81642601 L109.214323,9.07420985 C109.386179,8.9882819 109.300251,8.55864216 109.643963,8.47271421 L110.331386,8.73049806 C110.503242,8.64457011 110.417314,8.21493037 110.761026,8.12900242 L111.44845,8.38678626 C111.620306,8.30085831 111.620306,8.21493037 111.706233,7.87121857 C111.706233,7.78529062 111.792161,7.78529062 111.878089,7.69936267 C112.049945,7.52750677 112.307729,7.26972293 112.135873,6.92601113 C111.964017,6.58229934 111.706233,6.58229934 111.01881,6.75415524 C110.503242,6.84008318 107.066124,7.61343472 107.066124,7.61343472 C106.550557,6.66822729 106.206845,7.26972293 105.347565,7.18379498 C104.831998,7.09786703 104.058646,6.58229934 102.769727,7.78529062 C102.082303,7.61343472 101.480808,7.78529062 101.051168,8.04307447 C100.277816,7.69936267 98.8170412,7.01193908 96.0673468,7.01193908 C95.2939953,7.01193908 93.4035804,7.18379498 90.3961022,7.95714652 C89.6227506,8.12900242 88.935327,8.12900242 88.7634711,7.69936267 C88.5916152,7.18379498 89.1931109,6.75415524 90.3961022,6.15265959 C93.2317245,4.77781241 95.2080673,5.12152421 99.074825,3.05925344 C101.137096,1.9421901 101.308952,0.653270868 101.308952,0.395487022 C101.308952,0.223631124 101.051168,0.137703175 100.96524,0.309559073 C100.277816,1.25476651 100.10596,1.16883856 99.8481765,0.996982663 C99.5903927,0.739198817 99.3326089,1.16883856 99.074825,1.42662241 C98.8170412,1.59847831 98.8170412,1.42662241 98.5592573,1.25476651 C98.2155455,1.08291061 97.9577617,1.68440625 97.6999778,1.7703342 C97.356266,1.9421901 97.356266,1.7703342 97.1844101,1.59847831 C97.0984822,1.51255036 96.9266263,1.51255036 96.8406983,1.59847831 C96.1532747,2.19997395 96.0673468,2.114046 95.8954909,1.9421901 C95.723635,1.7703342 95.6377071,1.68440625 95.2080673,2.114046 C94.9502835,2.37182984 94.5206437,2.62961369 94.4347158,2.37182984 C94.3487878,2.02811805 94.1769319,1.85626215 93.5754363,2.45775779 C93.2317245,2.80146959 92.9739406,2.80146959 92.8880127,2.62961369 C92.8020847,2.45775779 92.8020847,2.02811805 92.2005891,2.45775779 C91.6850214,2.88739754 91.4272376,3.05925344 91.2553817,2.71554164 C91.0835258,2.37182984 90.739814,2.62961369 90.3961022,2.88739754 C90.2242463,3.05925344 89.9664624,3.40296523 89.7946065,3.05925344 C89.6227506,2.71554164 89.2790388,3.05925344 88.8493991,3.48889318 C88.5916152,3.74667703 88.5056873,3.66074908 88.2479035,3.48889318 C87.9901196,3.31703728 87.7323358,4.00446087 87.302696,4.34817267 C87.2167681,4.43410062 87.1308401,4.43410062 86.8730563,4.26224472 C86.6152724,4.09038882 86.0997047,5.12152421 86.0137768,5.37930805 C85.7559929,5.8089478 85.584137,5.29338011 85.3263532,5.6370919 C84.7248575,6.49637139 84.1233619,7.44157883 83.951506,9.1601378 C83.7796501,11.2224086 84.4670737,12.8550396 85.2404252,13.4565352 L85.0685693,13.9721029 C84.8967134,14.5735986 84.8107855,15.2610222 85.0685693,15.7765899 C85.3263532,16.2921576 85.9278488,17.151437 86.1856327,16.2921576 C86.2715606,15.9484458 86.4434165,15.9484458 86.7871283,16.2062296 C87.302696,16.6358694 87.2167681,15.8625178 87.302696,15.6906619 C87.388624,15.518806 87.4745519,15.518806 87.9041917,15.7765899 C88.1619755,15.9484458 88.2479035,15.6906619 88.3338314,15.3469501 C88.5916152,14.3158147 88.0760476,14.0580309 87.6464078,13.9721029 C87.302696,13.886175 86.9589842,13.9721029 86.9589842,13.9721029 C87.7323358,12.8550396 87.8182637,12.167616 86.9589842,11.6520483 C87.0449122,11.5661204 87.2167681,11.6520483 87.302696,11.6520483 C87.4745519,11.7379763 87.6464078,11.9098322 87.8182637,12.0816881 C87.9041917,12.253544 88.1619755,12.7691117 87.7323358,13.5424632 C87.9041917,13.5424632 88.5056873,13.5424632 88.7634711,14.2298868 C89.1071829,14.3158147 91.5131655,14.5735986 92.5443009,14.4017427 C92.8880127,14.3158147 93.0598686,13.9721029 93.4895083,13.6283911 C93.9191481,13.2846793 94.3487878,12.8550396 94.7784276,13.1128234 C94.091004,13.3706073 93.5754363,13.9721029 93.5754363,14.6595265 C93.5754363,15.1750942 93.8332201,15.4328781 94.1769319,15.7765899 C94.5206437,16.0343737 94.6065717,16.5499414 94.7784276,16.8936532 C94.9502835,17.3232929 95.2939953,17.3232929 95.3799232,16.8936532 C95.4658512,16.2921576 95.6377071,16.3780855 95.8954909,16.6358694 C96.1532747,16.9795811 96.4110586,16.8936532 96.4110586,16.4640135 C96.4110586,16.0343737 96.5829145,15.8625178 97.0125542,16.2921576 C97.1844101,16.4640135 97.442194,16.4640135 97.442194,16.0343737 C97.442194,15.518806 97.6999778,15.518806 97.9577617,15.7765899 C98.0436896,15.8625178 98.1296176,15.9484458 98.2155455,15.9484458 C98.4733294,15.9484458 98.6451853,15.518806 98.3874014,15.0891663 C98.3014735,14.9173104 98.1296176,14.6595265 96.9266263,14.4017427 C96.4969865,14.3158147 96.5829145,14.0580309 96.5829145,14.0580309 C99.5044647,14.2298868 101.996375,13.800247 103.629006,12.8550396 C105.605349,13.3706073 108.612827,13.3706073 109.558035,13.3706073 C110.503242,13.3706073 111.276594,13.2846793 111.878089,13.0268955 C112.479585,12.5972558 112.393657,12.167616 112.135873,11.9957601 L112.135873,11.9957601 Z M14.6935793,5.37930805 L16.841778,10.1912732 L12.6313085,10.1912732 L14.6935793,5.37930805 Z M1.89031487,3.48889318 L-0.0001,3.48889318 L-0.0001,14.2298868 L7.64748745,14.2298868 L7.64748745,12.5113278 L1.89031487,12.5113278 L1.89031487,3.48889318 Z M59.0324008,5.20745216 L59.0324008,14.2298868 L60.9228157,14.2298868 L60.9228157,5.20745216 L64.7036455,5.20745216 L64.7036455,3.48889318 L55.423427,3.48889318 L55.423427,5.20745216 L59.0324008,5.20745216 Z M38.667477,12.5113278 C36.5192783,12.5113278 34.8866472,10.8786968 34.8866472,8.81642601 C34.8866472,6.75415524 36.5192783,5.12152421 38.667477,5.12152421 C40.8156757,5.12152421 42.4483067,6.75415524 42.4483067,8.81642601 C42.4483067,10.9646247 40.8156757,12.5113278 38.667477,12.5113278 L38.667477,12.5113278 Z M27.2390598,5.20745216 C28.8716908,5.20745216 29.7309703,6.06673164 30.246538,6.58229934 L31.6213852,5.29338011 C31.1917454,4.77781241 29.9028262,3.31703728 27.2390598,3.31703728 C24.1456536,3.31703728 21.3959593,5.37930805 21.3959593,8.90235396 C21.3959593,12.4253999 24.0597257,14.4876706 27.1531318,14.4876706 C29.5591144,14.4876706 31.1058175,13.1987514 31.6213852,12.7691117 L30.5902498,11.3083365 C29.7309703,11.9957601 28.4420511,12.6831837 27.1531318,12.6831837 C25.0049331,12.6831837 23.3723021,11.0505527 23.3723021,8.9882819 C23.45823,6.75415524 25.0908611,5.20745216 27.2390598,5.20745216 L27.2390598,5.20745216 Z M45.9713526,13.1987514 C46.4009924,13.5424632 47.6899116,14.4876706 50.0099662,14.4876706 C52.3300208,14.4876706 54.2204357,13.1987514 54.2204357,11.3083365 C54.2204357,7.18379498 48.2914072,8.55864216 48.2914072,6.32451549 C48.2914072,5.72301985 48.8069749,5.20745216 50.1818221,5.20745216 C51.8144531,5.20745216 52.8455885,5.9808037 53.2752283,6.23858754 L54.0485798,4.69188446 C53.5330121,4.26224472 52.072237,3.40296523 50.1818221,3.40296523 C47.3461998,3.40296523 46.1432085,5.03559626 46.1432085,6.58229934 C46.1432085,10.2772011 52.072237,9.24606575 52.072237,11.4801924 C52.072237,12.4253999 51.1270296,12.8550396 50.0958942,12.8550396 C48.4632631,12.8550396 47.1743439,12.167616 46.6587762,11.7379763 L45.9713526,13.1987514 L45.9713526,13.1987514 Z M74.5853596,3.48889318 L66.4222044,3.48889318 L66.4222044,14.2298868 L74.7572155,14.2298868 L74.7572155,12.5113278 L68.3126193,12.5113278 L68.3126193,9.6757055 L73.812008,9.6757055 L73.812008,7.95714652 L68.3126193,7.95714652 L68.3126193,5.20745216 L74.5853596,5.20745216 L74.5853596,3.48889318 Z M18.8181208,14.2298868 L21.0522475,14.2298868 L15.8965705,3.48889318 L13.7483718,3.48889318 L8.93640668,14.2298868 L10.9127495,14.2298868 L11.9438849,11.8239042 L17.6151295,11.8239042 L18.8181208,14.2298868 Z M38.667477,14.4876706 C41.7608831,14.4876706 44.5105775,12.4253999 44.5105775,8.90235396 C44.5105775,5.37930805 41.7608831,3.31703728 38.667477,3.31703728 C35.5740708,3.31703728 32.8243765,5.37930805 32.8243765,8.90235396 C32.8243765,12.3394719 35.5740708,14.4876706 38.667477,14.4876706 L38.667477,14.4876706 Z" id="Fill-1" fill="#B3B4B3" sketch:type="MSShapeGroup" mask="url(#mask-2)"></path>
                </g>
                <g id="l'oreal" transform="translate(356.000000, 5.000000)">
                    <path d="M45.1392148,14.0022963 L55.8458321,14.0022963 L55.8458321,12.6943457 L46.9744741,12.6943457 L46.9744741,8.50965432 L53.638079,8.50965432 L53.638079,7.18669136 L46.9744741,7.18669136 L46.9744741,3.33039506 L55.8458321,3.33039506 L55.8458321,2.02807407 L45.1392148,2.02807407 L45.1392148,14.0022963 Z" id="Fill-1" fill="#B3B4B3" sketch:type="MSShapeGroup"></path>
                    <path d="M50.7029778,0.0918567901 L49.2542864,1.7206963 L53.8049037,0.0918567901 L50.7029778,0.0918567901 Z" id="Fill-2" fill="#B3B4B3" sketch:type="MSShapeGroup"></path>
                    <path d="M72.1468,2.02732346 L72.1468,14.002484 L82.9707012,14.002484 L82.9707012,12.6945333 L73.8206765,12.6945333 L73.8206765,2.02732346 L72.1468,2.02732346 Z" id="Fill-3" fill="#B3B4B3" sketch:type="MSShapeGroup"></path>
                    <path d="M61.081763,9.40195062 L63.9509975,3.68224691 L66.8540099,9.40195062 L61.081763,9.40195062 Z M62.7837877,2.02807407 L56.6953432,14.0022963 L58.7529728,14.0022963 L60.311442,10.9031852 L67.6140099,10.9031852 L69.1846765,14.0022963 L71.2216642,14.0022963 L65.1275901,2.02807407 L62.7837877,2.02807407 Z" id="Fill-4" fill="#B3B4B3" sketch:type="MSShapeGroup"></path>
                    <path d="M37.8953827,7.56425185 L32.303284,7.56425185 L32.303284,3.44523951 L38.0905432,3.44523951 C39.4228889,3.44523951 40.1716296,4.06731358 40.4418519,4.85733827 C40.6201235,5.39872099 40.5056543,6.10993086 40.211037,6.59407901 C39.7268889,7.39348642 38.808321,7.56425185 37.8953827,7.56425185 M39.3290617,8.99511605 C42.0725679,8.2632642 42.339037,6.22158519 42.324963,5.49254815 C42.1617037,3.35328889 40.7205185,2.02751111 38.1299506,2.02751111 L30.5834321,2.02751111 L30.5834321,14.0026716 L32.303284,14.0026716 L32.303284,8.97916543 L37.2170123,8.97916543 L40.8321728,14.0026716 L43.0005185,14.0026716 C43.0005185,14.0026716 40.3986914,10.622079 39.3290617,8.99511605" id="Fill-5" fill="#B3B4B3" sketch:type="MSShapeGroup"></path>
                    <mask id="mask-4" sketch:name="Clip 8" fill="white">
                        <use xlink:href="#path-3"></use>
                    </mask>
                    <g id="Clip-8"></g>
                    <path d="M20.1854123,13.5259358 C16.8254617,13.5259358 14.0566222,10.8255901 14.0566222,7.57260247 C14.0566222,4.32430617 16.695042,1.49541728 20.3158321,1.49541728 C23.8465481,1.49541728 26.4427457,4.32430617 26.4427457,7.57260247 C26.4427457,10.8255901 23.5444247,13.5259358 20.1854123,13.5259358 M20.2435852,-0.000187654321 C15.3870914,-0.000187654321 12.0768691,3.4245037 12.0768691,7.56884938 C12.0768691,11.9318123 15.7333136,15.012158 20.2435852,15.012158 C24.751042,15.012158 28.4065481,11.9759111 28.4065481,7.56884938 C28.4065481,3.4245037 25.055042,-0.000187654321 20.2435852,-0.000187654321" id="Fill-7" fill="#B3B4B3" sketch:type="MSShapeGroup" mask="url(#mask-4)"></path>
                    <path d="M7.74355556,6.26390123 L8.98488889,6.26390123 L11.2386173,2.02760494 L9.42493827,2.02760494 L7.74355556,6.26390123 Z" id="Fill-10" fill="#B3B4B3" sketch:type="MSShapeGroup" mask="url(#mask-4)"></path>
                    <mask id="mask-6" sketch:name="Clip 13" fill="white">
                        <use xlink:href="#path-5"></use>
                    </mask>
                    <g id="Clip-13"></g>
                    <path d="M1.67443951,12.6944395 L1.67443951,2.02722963 L-0.000375308642,2.02722963 L-0.000375308642,14.0023901 L10.8235259,14.0023901 L10.8235259,12.6944395 L1.67443951,12.6944395 Z" id="Fill-12" fill="#B3B4B3" sketch:type="MSShapeGroup" mask="url(#mask-6)"></path>
                </g>
                <g id="pepeJeans" transform="translate(240.000000, 0.000000)">
                    <mask id="mask-8" sketch:name="Clip 2" fill="white">
                        <use xlink:href="#path-7"></use>
                    </mask>
                    <g id="Clip-2"></g>
                    <path d="M43.041263,5.73156111 C43.1586642,3.47795 45.7751519,2.16190679 47.6166272,2.8860179 C51.4391457,4.3892463 51.9801765,9.32995 52.3315593,13.0785796 C52.3685037,13.4841475 53.2798,13.2953204 53.2839049,13.256734 C53.7321642,9.75357963 57.1770284,8.83489444 59.0373864,9.87754877 C61.2778617,11.1344809 59.4528062,14.1302648 57.5243062,14.848629 C57.1261272,14.9972278 56.4167938,15.0776846 56.5325531,15.3206969 C57.2147938,16.7590673 59.2450963,16.3296907 60.2442383,15.1088821 C61.1021704,14.0588389 60.9338679,12.5260549 62.1760222,11.7551475 C62.6168926,11.4809377 63.2441272,10.927592 63.6710407,10.9160981 C64.8819975,10.8865426 66.9426765,10.4136537 67.2004667,11.7058883 C66.7694481,13.0268574 63.3533185,11.8709068 62.6505531,14.0177895 C62.3467877,14.9455056 62.6842136,15.9085241 63.5249049,15.912629 C64.1710222,15.915913 64.4394852,14.517771 65.048658,14.1622833 C65.8343432,13.7033512 66.8893123,14.7747401 67.5567753,14.3133451 C68.7176519,13.5095981 68.4582198,11.3134562 70.0312321,10.8734068 C71.4671395,10.4711228 72.9079728,10.9333389 73.8636025,12.1648204 C74.8397568,11.3553265 75.6049173,10.0236846 77.0597074,10.6049438 C77.3922074,10.7371228 77.816658,10.861913 77.9882444,11.2502401 C78.5818185,12.5941969 79.0629173,13.915987 79.478337,15.3518944 C79.7607568,16.3296907 80.8830469,16.1318327 81.4019111,15.3535364 C82.7056395,13.3938389 83.0791889,10.6985364 85.1776333,9.76835741 C87.6274605,8.68136975 88.8761827,11.8117957 88.7201951,14.0054747 C88.594584,15.7549994 91.0066457,14.11795 91.5534235,15.6121475 C90.8350593,16.2147525 89.7373988,15.9717401 89.0650099,16.1901228 C88.193121,16.4741846 87.9394358,17.7811969 86.9452198,18.0948142 C85.0544852,18.6933142 83.6801519,17.4281722 83.2819728,15.6113265 C81.8370346,16.0054006 81.8394975,18.3238698 80.0702691,17.6646167 C78.2033432,16.9692401 77.752621,14.9939438 76.551516,13.6007278 C76.3035778,13.3133821 75.8553185,13.6959623 75.7477691,14.0186105 C75.4062383,15.0308883 75.4316889,16.2648327 74.494121,16.9052031 C73.8611395,17.3378636 73.5861086,16.4626907 73.497442,16.0505549 C73.1846457,14.5949438 72.4547877,12.4406722 71.0500778,12.5162031 C69.5542383,12.5958389 69.7849358,16.3863389 68.7365346,17.8846414 C68.174979,18.6875673 67.1183679,16.7369006 66.2341642,16.4380611 C65.3983988,16.1539994 65.0223864,17.3033821 64.1800531,17.7188019 C62.6916025,18.4544068 61.3369728,16.4659747 60.6892136,16.9314747 C57.6942506,19.0865673 55.475942,17.6128944 53.5794605,15.6761846 C53.3873494,15.4816105 52.3611148,15.6786475 52.3167815,15.8321722 C51.0040222,20.4067154 49.5796086,27.01895 43.7842568,26.2028883 C40.6234543,25.757092 39.6850654,22.0569006 40.5971827,19.3599562 C41.4674296,16.7853389 44.4566457,15.9011352 46.7373494,14.8863944 C47.0608185,14.7435426 47.4450407,14.3117031 47.1552321,14.0752586 C44.4779914,11.8996414 42.8639296,9.11567222 43.041263,5.73156111 L43.041263,5.73156111 Z M44.8753494,6.1913142 C44.765337,9.21419074 46.3227506,11.987487 48.8645284,13.4677278 C49.1231395,13.6179685 49.8349358,13.7632833 49.8768062,13.3059932 C50.1723617,10.1566846 49.9638309,6.04025247 47.1232136,4.26609815 C46.0255531,3.57975247 44.9237877,4.86295617 44.8753494,6.1913142 L44.8753494,6.1913142 Z M48.2668494,21.0692525 C49.153516,19.6111784 49.6740222,17.9971167 49.687979,16.3001352 C49.6888,16.1482525 49.420337,15.8822525 49.286516,15.8994932 C46.431121,16.2574438 44.033837,18.2253512 42.2137074,20.4822463 C41.4288432,21.4559377 41.6357321,22.6595056 42.4197753,23.626629 C43.1964296,24.5880056 44.5247877,24.7686228 45.3433123,24.4845611 C46.8662444,23.9550241 47.4663864,22.3836537 48.2668494,21.0692525 L48.2668494,21.0692525 Z M56.4011951,13.0835056 C57.3937691,12.7707093 58.3173802,12.1746722 58.1868432,11.0228265 C58.1416889,10.6295735 57.6187198,10.4497772 57.3100284,10.4079068 C56.2296086,10.260129 55.8429235,11.5490796 55.4997506,12.4029068 C55.2600222,12.9964809 55.942263,13.2279994 56.4011951,13.0835056 L56.4011951,13.0835056 Z M85.4165407,14.6031537 C85.8598741,14.6212154 86.5166642,14.9873759 86.6258556,14.4430611 C86.860658,13.2739747 86.7547506,12.0507031 85.9649605,11.1509006 C85.7014235,10.8512401 85.2129358,11.7354438 84.936263,12.1935549 C84.5298741,12.8643019 84.6136148,13.654092 83.9970531,14.2608019 C83.8509173,14.4044747 84.0495963,14.6696537 84.1924481,14.647487 C84.7531827,14.5571784 84.8434914,14.580166 85.4165407,14.6031537 L85.4165407,14.6031537 Z M15.8821704,9.66819691 C17.2548617,9.74372778 18.1078679,11.3011414 17.9453123,12.3823821 C17.7441704,13.7041722 16.7376395,14.4980673 15.7647691,15.4118265 C15.6178123,15.5505735 15.7926827,15.7632093 15.972479,15.8239623 C16.6046395,16.0390611 17.3180778,15.7664932 17.7146148,15.4848944 C20.5059728,13.5046722 22.4681333,9.51385123 26.1592938,10.8709438 C27.9630037,11.5343019 30.2133309,13.4767586 29.8775469,15.8600858 C29.8110469,16.3329747 30.6180778,16.4265673 31.1123123,16.2558019 C31.4357815,16.1433265 31.7937321,15.783734 31.5441519,15.4126475 C30.4120099,13.7320858 31.071263,11.1459747 32.7690654,10.1525796 C33.8560531,9.5163142 35.1450037,9.64110432 36.1096642,10.2207216 C38.0357012,11.3766722 38.048016,14.5481475 35.9528556,15.8420241 C36.9659543,17.1662772 38.4708247,14.9619253 39.6809605,15.5653512 C39.7203679,15.5858759 39.8935963,15.8773265 39.8903123,15.983234 C39.8418741,17.313234 38.116158,18.0833204 37.0242444,18.1489994 C35.7525346,18.2253512 34.058016,17.3321167 33.2345654,17.5603512 C30.008084,18.4552278 29.3767444,18.4839623 24.6954728,18.1399685 C24.7102506,20.5988265 25.3046457,24.5543451 22.3638679,25.3621969 C20.6759173,25.8260549 19.9887506,24.1972154 19.6907321,22.7235426 C19.2112753,20.3484253 19.5265346,17.9667401 19.9854667,15.8420241 C18.4058864,17.1728451 16.2007136,18.4716475 14.2016086,17.5504994 C12.8157815,16.911771 12.0309173,15.4397401 10.2789296,15.6384191 C9.92097901,15.6794685 9.30277531,15.181129 9.44644815,14.6647278 C10.1352568,14.4348512 11.1984358,15.0949253 11.317479,14.8666907 C11.8379852,13.8716537 10.9702012,13.0613389 11.4069667,12.1845241 C11.8617938,11.2674809 12.1335407,10.2215426 13.2205284,9.90956728 C14.2122815,9.62386358 14.8698926,9.61236975 15.8821704,9.66819691 L15.8821704,9.66819691 Z M13.648263,14.0030117 C13.6302012,14.3938019 14.0357691,14.6195735 14.108837,14.6031537 C15.3534543,14.314166 16.0824914,12.5679253 15.8714975,11.7444747 C15.7557383,11.2962154 15.2656086,10.5614315 14.6186704,10.8528821 C13.3929358,11.4029438 13.6999852,12.8462401 13.648263,14.0030117 L13.648263,14.0030117 Z M21.3351704,18.7483204 C20.9952815,20.234308 20.7366704,21.5749809 21.3400963,22.9238636 C21.7538741,23.8491167 22.6700963,23.4566846 22.887658,22.5823327 C23.2981519,20.9321475 23.0600654,19.4592957 22.8072012,17.6933512 C22.7661519,17.4076475 22.354837,16.9955117 22.1881765,17.0825364 C21.5379543,17.4216043 21.491158,18.0693636 21.3351704,18.7483204 L21.3351704,18.7483204 Z M24.153621,12.9291599 C23.3761457,13.6302833 23.8014173,15.7320117 24.951621,16.377308 C25.8399296,16.8748265 26.9852074,16.244308 27.3661457,15.3445056 C27.9391951,13.9898759 26.3850654,12.8757957 25.1445531,12.4242525 C24.6683802,12.2518451 24.3761086,12.7280179 24.153621,12.9291599 L24.153621,12.9291599 Z M33.7049914,11.9579315 C33.2518062,12.9365488 33.3183062,14.8683327 33.927479,15.0046167 C34.9783432,15.2385981 36.2796086,12.98745 35.6843926,11.724771 C35.2115037,10.7207031 34.0974235,11.1065673 33.7049914,11.9579315 L33.7049914,11.9579315 Z M4.17160247,1.52399938 C4.40640494,1.27770309 3.90560247,0.506795679 4.25041728,0.190715432 C5.42771358,-0.268216667 5.1937321,0.237511728 5.64773827,0.300727778 C7.42271358,0.543740123 9.21903457,-0.0104265432 11.0022198,0.879524074 C13.0275963,1.89098086 15.0193123,3.52146235 14.7204728,6.17161049 C14.3928988,9.08119074 11.3741272,10.3093883 8.62381852,10.6254685 C8.36684938,10.6558451 7.98591111,11.0376043 8.01382469,11.2346414 C8.22481852,12.6804006 8.2527321,14.0908574 7.79297901,15.3330117 C7.11155926,17.17695 5.13544198,18.4568698 3.11827531,17.8534438 C0.460738272,17.0562648 -0.034317284,14.2640858 0.00180617284,11.9382278 C0.0625592593,8.09190062 1.3630037,4.47134506 4.17160247,1.52399938 L4.17160247,1.52399938 Z M6.5368679,2.2743821 C6.14525679,3.20620309 6.82092963,5.78082037 7.1090963,7.55497469 C7.21171975,8.1863142 7.2552321,9.30696235 7.91202222,9.2503142 C10.051516,9.06477099 12.979979,6.19213519 12.6212074,4.16019074 C12.1828,1.6758821 7.18955309,0.721073457 6.5368679,2.2743821 L6.5368679,2.2743821 Z M4.75942963,5.49511667 C4.6945716,5.12238827 4.38095432,5.05917222 4.2495963,4.81369691 C2.37363951,5.94994383 2.25377531,8.34722778 1.8285037,10.3504377 C1.35479383,12.5827031 1.60191111,15.0645488 3.4450284,16.3715611 C4.42446667,17.0652957 5.70520741,15.5554994 5.97367037,14.4364932 C6.71420123,11.3438327 5.28075679,8.54590679 4.75942963,5.49511667 L4.75942963,5.49511667 Z" id="Fill-1" fill="#B3B4B3" sketch:type="MSShapeGroup" mask="url(#mask-8)"></path>
                </g>
                <g id="Bbc" transform="translate(482.000000, 4.000000)">
                    <mask id="mask-10" sketch:name="Clip 2" fill="white">
                        <use xlink:href="#path-9"></use>
                    </mask>
                    <g id="Clip-2"></g>
                    <path d="M8.241525,9.67995 C9.139275,9.67995 9.796275,9.7587 10.212525,9.91845 C10.62765,10.08045 10.9494,10.3212 11.177775,10.6452 C11.402775,10.97145 11.517525,11.330325 11.517525,11.7207 C11.517525,12.104325 11.409525,12.457575 11.1969,12.7917 C10.9809,13.1202 10.694025,13.366575 10.34415,13.52295 C9.992025,13.679325 9.32265,13.758075 8.331525,13.758075 L6.547275,13.758075 L6.547275,9.67995 L8.241525,9.67995 Z M8.1054,4.1742 C9.6489,4.1742 10.4184,4.7907 10.4184,6.02595 C10.4184,6.621075 10.217025,7.1037 9.80865,7.478325 C9.402525,7.8552 8.7174,8.0397 7.753275,8.0397 L6.547275,8.0397 L6.547275,4.1742 L8.1054,4.1742 Z M9.02115,15.396075 C9.9819,15.396075 10.788525,15.23295 11.429775,14.90895 C12.07215,14.581575 12.557025,14.16195 12.890025,13.645575 C13.220775,13.1292 13.3884,12.5442 13.3884,11.888325 C13.3884,11.060325 13.11615,10.35045 12.568275,9.75195 C12.023775,9.15795 11.288025,8.77095 10.365525,8.5932 C11.650275,8.04645 12.293775,7.140825 12.293775,5.8797 C12.293775,5.2227 12.140775,4.643325 11.832525,4.141575 C11.524275,3.64095 11.078775,3.2472 10.49265,2.96145 C9.908775,2.679075 9.092025,2.53395 8.04915,2.53395 L4.7394,2.53395 L4.7394,15.396075 L9.02115,15.396075 Z M17.702775,18.00045 L-0.000225,18.00045 L-0.000225,0.00045 L17.702775,0.00045 L17.702775,18.00045 Z" id="Fill-1" fill="#B3B4B3" sketch:type="MSShapeGroup" mask="url(#mask-10)"></path>
                    <mask id="mask-12" sketch:name="Clip 5" fill="white">
                        <use xlink:href="#path-11"></use>
                    </mask>
                    <g id="Clip-5"></g>
                    <path d="M28.7686125,9.67995 C29.6663625,9.67995 30.3244875,9.7587 30.7407375,9.91845 C31.1547375,10.08045 31.4764875,10.3212 31.7048625,10.6452 C31.9298625,10.97145 32.0434875,11.330325 32.0434875,11.7207 C32.0434875,12.104325 31.9377375,12.457575 31.7239875,12.7917 C31.5091125,13.1202 31.2244875,13.366575 30.8712375,13.52295 C30.5191125,13.679325 29.8508625,13.758075 28.8586125,13.758075 L27.0788625,13.758075 L27.0788625,9.67995 L28.7686125,9.67995 Z M28.6336125,4.1742 C30.1771125,4.1742 30.9454875,4.7907 30.9454875,6.02595 C30.9454875,6.621075 30.7452375,7.1037 30.3391125,7.478325 C29.9296125,7.8552 29.2444875,8.0397 28.2814875,8.0397 L27.0788625,8.0397 L27.0788625,4.1742 L28.6336125,4.1742 Z M29.5471125,15.396075 C30.5112375,15.396075 31.3156125,15.23295 31.9613625,14.90895 C32.6014875,14.581575 33.0841125,14.16195 33.4204875,13.645575 C33.7478625,13.1292 33.9166125,12.5442 33.9166125,11.888325 C33.9166125,11.060325 33.6454875,10.35045 33.0976125,9.75195 C32.5508625,9.15795 31.8151125,8.77095 30.8948625,8.5932 C32.1784875,8.04645 32.8208625,7.140825 32.8208625,5.8797 C32.8208625,5.2227 32.6689875,4.643325 32.3596125,4.141575 C32.0513625,3.64095 31.6069875,3.2472 31.0208625,2.96145 C30.4381125,2.679075 29.6224875,2.53395 28.5784875,2.53395 L25.2687375,2.53395 L25.2687375,15.396075 L29.5471125,15.396075 Z M38.1567375,18.00045 L20.4548625,18.00045 L20.4548625,0.00045 L38.1567375,0.00045 L38.1567375,18.00045 Z" id="Fill-4" fill="#B3B4B3" sketch:type="MSShapeGroup" mask="url(#mask-12)"></path>
                    <path d="M55.0521,12.412575 C53.59185,13.368825 52.0956,13.8492 50.56335,13.8492 C49.099725,13.8492 47.89485,13.395825 46.9521,12.486825 C46.01385,11.577825 45.542475,10.416825 45.542475,9.0072 C45.542475,7.60545 46.021725,6.443325 46.9791,5.514075 C47.9331,4.5837 49.13685,4.11795 50.580225,4.11795 C51.990975,4.11795 53.437725,4.548825 54.9171,5.406075 L54.9171,3.4272 C53.293725,2.721825 51.819975,2.3697 50.49135,2.3697 C48.5721,2.3697 46.950975,3.0087 45.639225,4.283325 C44.32635,5.5602 43.66935,7.1352 43.66935,9.0072 C43.66935,10.187325 43.958475,11.278575 44.529975,12.29445 C45.10485,13.305825 45.8811,14.1012 46.865475,14.676075 C47.8476,15.2532 49.043475,15.54345 50.45535,15.54345 C52.193475,15.54345 53.7246,15.177825 55.0521,14.437575 L55.0521,12.412575 Z M58.60935,18.00045 L40.90635,18.00045 L40.90635,0.00045 L58.60935,0.00045 L58.60935,18.00045 Z" id="Fill-7" fill="#B3B4B3" sketch:type="MSShapeGroup" mask="url(#mask-12)"></path>
                </g>
                <g id="tbs" transform="translate(659.000000, 0.000000)">
                    <path d="M0.0680161616,0.244351515 L2.44627879,0.244351515 L2.44627879,2.43606869 L4.08987475,2.43606869 L4.08987475,3.53154343 L2.44627879,3.53154343 L2.44627879,8.68956364 C2.44627879,9.5102101 2.73646061,9.55857374 3.25003636,9.55857374 L4.08987475,9.55857374 L4.08987475,11.2021697 L2.39484444,11.2021697 C0.889430303,11.2021697 0.254561616,10.5703717 0.254561616,9.23691717 L0.254561616,0.000230303031 L0.0680161616,0.244351515 Z" id="Fill-1" fill="#B3B4B3" sketch:type="MSShapeGroup"></path>
                    <path d="M5.47322828,0.244351515 L7.37706667,0.244351515 L7.37706667,3.21602828 C7.92518788,2.49748283 9.02066263,2.12132121 10.1169051,2.05299798 L10.1169051,3.52386667 C8.47330909,3.52386667 7.89294545,4.89186667 7.89294545,6.67057374 C7.89294545,8.44928081 8.47330909,9.81804848 10.1169051,9.81804848 L10.1169051,11.2021697 L9.81751111,11.2021697 C7.11528889,11.2021697 5.73347071,9.74972525 5.73347071,6.63679596 C5.73347071,6.60225051 5.73347071,6.63679596 5.73347071,6.63679596 L5.73347071,0.000230303031 L5.47322828,0.244351515 Z M9.85205657,1.88794747 L10.1261172,1.88794747 C12.3147636,1.88794747 14.3291475,3.16766465 14.3291475,6.55465455 C14.3291475,9.63303838 12.3078545,11.3234626 10.1169051,11.3234626 L10.1169051,9.81804848 C11.2123798,9.81804848 12.3063192,8.44928081 12.3063192,6.67057374 C12.3063192,4.89186667 11.2123798,3.52386667 10.1169051,3.52386667 L10.1169051,2.05299798 L9.85205657,1.88794747 Z" id="Fill-3" fill="#B3B4B3" sketch:type="MSShapeGroup"></path>
                    <mask id="mask-14" sketch:name="Clip 6" fill="white">
                        <use xlink:href="#path-13"></use>
                    </mask>
                    <g id="Clip-6"></g>
                    <path d="M22.8518949,13.941701 C22.8173495,19.9687313 17.7207434,25.3332566 11.4257939,25.3332566 C5.1653899,25.3332566 0.0342383838,19.9687313 -0.000307070707,13.941701 L22.8518949,13.941701 Z" id="Fill-5" fill="#B3B4B3" sketch:type="MSShapeGroup" mask="url(#mask-14)"></path>
                    <path d="M15.1546303,4.58402828 C15.1546303,2.83909899 17.0016606,1.98851313 18.8494586,1.98851313 C21.3804889,1.98851313 22.5089737,3.53154343 22.5089737,4.62778586 L20.4907515,4.62778586 C20.4907515,4.07966465 19.7384283,3.42560404 18.8494586,3.42560404 C18.3013374,3.39182626 17.309499,3.59449293 17.2757212,4.31303838 C17.207398,6.33126061 22.7484889,4.82507879 22.7484889,8.34794747 C22.7484889,10.2640687 21.1755192,11.3649172 18.9177818,11.3649172 C16.5909535,11.3649172 15.1200848,10.1066949 15.1200848,8.46233131 L17.0699838,8.46233131 C17.0699838,9.55857374 18.0963677,9.89328081 18.9861051,9.89328081 C19.6017818,9.85873535 20.5598424,9.58160404 20.5598424,8.82928081 C20.6627111,6.40111919 15.1546303,8.09231111 15.1546303,4.60245253 L15.1546303,4.58402828 Z" id="Fill-8" fill="#B3B4B3" sketch:type="MSShapeGroup" mask="url(#mask-14)"></path>
                </g>
                <g id="nbc" transform="translate(583.000000, 4.000000)">
                    <path d="M3.6627038,5.13410127 C2.36602025,6.30524051 1.89380506,8.95875949 4.23152658,10.5099494 L13.5576911,16.8928861 L9.0357038,6.5581519 C8.08819747,4.11937975 5.49608354,3.58746835 3.6627038,5.13410127" id="Fill-1" fill="#B3B4B3" sketch:type="MSShapeGroup"></path>
                    <path d="M11.6905899,0.109253165 C10.1744886,0.140012658 7.89817215,1.94103797 8.91141266,4.69105063 L13.5882228,15.6944051 L15.2314633,4.12097468 C15.6117418,1.24518987 13.430438,-0.0823670886 11.6905899,0.109253165" id="Fill-3" fill="#B3B4B3" sketch:type="MSShapeGroup"></path>
                    <path d="M15.9613747,3.67951899 L16.8457671,3.67951899 C16.8457671,3.67951899 17.3179823,3.67951899 17.3821215,3.90178481 C17.0341975,4.18534177 16.0870329,4.22077215 16.2125772,5.73516456 L17.6994,15.6928101 L22.3441975,4.66051899 C23.294438,2.19725316 21.3000835,0.140012658 19.5311848,0.0771265823 C19.4484759,0.0710886076 19.3656532,0.0663037975 19.2798684,0.0663037975 C17.691881,0.0663037975 15.8725139,1.21762025 15.9613747,3.67951899" id="Fill-5" fill="#B3B4B3" sketch:type="MSShapeGroup"></path>
                    <path d="M22.157362,6.65179747 L17.7639949,16.8625823 L27.0870835,10.4459241 C29.2363747,8.92526582 28.8898177,6.49401266 27.6866658,5.29222785 C27.1822101,4.72659494 26.2563494,4.2896962 25.2754633,4.2896962 C24.1164,4.28946835 22.8763367,4.90272152 22.157362,6.65179747" id="Fill-7" fill="#B3B4B3" sketch:type="MSShapeGroup"></path>
                    <path d="M26.0433114,11.8989114 L17.2875646,18 L28.0684253,18 C30.2802608,18 31.7014633,15.7249367 31.0697544,13.6371646 C30.6466405,12.3249873 29.3942734,11.2948861 27.9410582,11.2934051 C27.3294,11.293519 26.6808304,11.4773924 26.0433114,11.8989114" id="Fill-9" fill="#B3B4B3" sketch:type="MSShapeGroup"></path>
                    <mask id="mask-16" sketch:name="Clip 12" fill="white">
                        <use xlink:href="#path-15"></use>
                    </mask>
                    <g id="Clip-12"></g>
                    <path d="M3.41138734,18 L14.0329823,18 L5.27529873,11.8989114 C3.25189367,10.602 0.977058228,11.3608481 0.155551899,13.5128734 C-0.540524051,15.976481 1.19784304,18 3.41138734,18" id="Fill-11" fill="#B3B4B3" sketch:type="MSShapeGroup" mask="url(#mask-16)"></path>
                </g>
                <g id="USA" transform="translate(722.000000, 4.000000)">
                    <mask id="mask-18" sketch:name="Clip 2" fill="white">
                        <use xlink:href="#path-17"></use>
                    </mask>
                    <g id="Clip-2"></g>
                    <path d="M16.55,10.74625 C16.35,10.64625 16.1,10.54625 15.85,10.44625 C15.45,10.24625 15,9.99625 14.65,9.69625 C14,9.14625 13.5,8.39625 13.2,7.59625 C12.9,6.74625 12.8,5.84625 12.85,4.94625 C12.9,3.99625 13.15,3.04625 13.65,2.24625 C14,1.59625 14.5,0.99625 15.1,0.54625 L10.1,0.54625 L10.1,7.94625 L10.1,9.49625 C10.1,9.99625 10.1,10.49625 10.05,10.94625 C9.95,11.79625 9.65,12.79625 8.85,13.24625 C8.45,13.44625 8,13.54625 7.55,13.49625 C7.1,13.49625 6.65,13.34625 6.3,13.09625 C5.6,12.54625 5.35,11.59625 5.25,10.74625 C5.2,10.29625 5.2,9.79625 5.2,9.34625 L5.2,7.79625 L5.2,0.54625 L0,0.54625 L0,9.64625 C0,10.69625 0,11.69625 0.2,12.69625 C0.4,13.59625 0.7,14.44625 1.25,15.19625 C1.75,15.94625 2.4,16.49625 3.2,16.94625 C4.05,17.39625 4.95,17.69625 5.9,17.84625 C6.85,17.99625 7.8,17.99625 8.75,17.94625 C9.65,17.84625 10.55,17.69625 11.4,17.34625 C12.2,17.04625 12.9,16.54625 13.5,15.89625 C14.05,15.29625 14.5,14.54625 14.75,13.79625 C14.75,13.74625 14.8,13.64625 14.8,13.59625 C15.4,14.19625 16.1,14.74625 16.85,15.14625 C17.6,15.54625 18.5,15.74625 19.35,15.59625 C19.75,15.49625 20.2,15.34625 20.5,15.04625 C20.8,14.79625 21,14.39625 21.05,13.99625 C21.1,13.64625 21.1,13.19625 20.9,12.89625 C20.75,12.59625 20.5,12.29625 20.2,12.09625 C19.75,11.79625 19.25,11.64625 18.75,11.49625 C18.2,11.29625 17.4,11.09625 17.2,10.99625 C17,10.94625 16.65,10.79625 16.55,10.74625 M31.7,13.49625 C30.9,13.49625 30.2,13.19625 29.6,12.69625 C29,12.14625 28.55,11.39625 28.35,10.59625 C27.9,8.99625 28.25,7.09625 29.45,5.89625 C30,5.34625 30.75,4.99625 31.6,4.94625 C32.4,4.94625 33.2,5.19625 33.8,5.74625 C34.85,6.64625 35.35,8.09625 35.25,9.49625 C35.2,10.89625 34.55,12.24625 33.35,12.99625 C32.85,13.34625 32.25,13.49625 31.7,13.49625 M35,2.14625 C33.9,1.09625 32.45,0.54625 30.95,0.49625 C29.45,0.44625 27.95,0.89625 26.7,1.74625 C25.65,2.49625 24.8,3.59625 24.2,4.74625 C23.5,4.14625 22.75,3.54625 21.9,3.19625 C21.1,2.89625 20.1,2.69625 19.25,3.09625 C18.9,3.24625 18.55,3.54625 18.35,3.89625 C18.15,4.24625 18.05,4.69625 18.1,5.09625 C18.15,5.49625 18.3,5.84625 18.6,6.14625 C18.9,6.44625 19.3,6.64625 19.7,6.79625 C20.15,6.99625 20.65,7.09625 21.1,7.24625 C21.55,7.39625 22,7.49625 22.4,7.69625 C23.25,7.99625 24.05,8.44625 24.7,9.04625 C26,10.29625 26.4,12.24625 26.2,13.99625 C26.15,14.49625 26,14.99625 25.85,15.44625 C25.8,15.54625 25.75,15.64625 25.7,15.74625 C25.7,15.79625 25.65,15.84625 25.65,15.84625 C25.65,15.84625 25.75,15.94625 25.8,15.99625 C25.95,16.14625 26.1,16.29625 26.25,16.39625 C26.85,16.89625 27.5,17.29625 28.25,17.54625 C29.7,18.09625 31.3,18.14625 32.75,17.69625 C33.55,17.44625 34.35,16.94625 34.95,16.34625 L34.95,17.79625 L39.9,17.79625 L39.9,0.69625 L34.95,0.69625 C35,0.74625 35,1.79625 35,2.14625" id="Fill-1" fill="#B3B4B3" sketch:type="MSShapeGroup" mask="url(#mask-18)"></path>
                </g>
            </g>
        </g>
    </g>
</svg>