<svg fill="#000000" xmlns="http://www.w3.org/2000/svg" xmlns:xlink="http://www.w3.org/1999/xlink" version="1.1" x="0px" y="0px" viewBox="0 0 100 100" enable-background="new 0 0 100 100" xml:space="preserve"><path d="M95.766,65.954c-0.728,0-1.412-0.283-1.926-0.797c-0.514-0.515-0.797-1.198-0.796-1.928  c-0.001-0.726,0.281-1.409,0.795-1.923c0.515-0.514,1.199-0.797,1.927-0.797c0.006,0,0.015-0.001,0.02,0  c1.066,0,1.93-0.864,1.93-1.93c0-0.096-0.007-0.189-0.021-0.281l-0.004-3.652c-0.001-1.064-0.869-1.928-1.935-1.927  c-0.724,0-1.405-0.283-1.918-0.797c-0.514-0.514-0.796-1.197-0.796-1.922c0.001-1.501,1.223-2.723,2.723-2.724  c1.065-0.001,1.929-0.865,1.929-1.93v-3.927c0-1.064-0.863-1.928-1.928-1.929c-1.501-0.002-2.723-1.225-2.724-2.725  c0-1.501,1.222-2.723,2.725-2.723c0.512-0.001,1.002-0.204,1.364-0.566c0.361-0.362,0.564-0.853,0.564-1.364l-0.004-5.9  c-0.001-1.065-0.864-1.929-1.93-1.929H4.217c-1.065,0-1.93,0.864-1.93,1.93v5.903c0,1.065,0.868,1.929,1.934,1.929  c1.499,0,2.718,1.221,2.718,2.719c-0.001,1.502-1.221,2.723-2.72,2.723c-1.065,0-1.929,0.863-1.93,1.929l-0.002,3.93  c0,1.065,0.863,1.93,1.929,1.931c1.5,0.001,2.722,1.223,2.723,2.722c0,1.502-1.221,2.723-2.722,2.723c-1.065,0-1.93,0.864-1.93,1.93  v3.929c0,1.065,0.864,1.93,1.93,1.93c1.501,0,2.722,1.221,2.722,2.722s-1.222,2.723-2.725,2.723  c-1.065,0.001-1.929,0.865-1.929,1.931l0.002,5.899c0.001,1.064,0.864,1.929,1.93,1.929h67.002c0.007,0,0.013,0.002,0.02,0.002  s0.013-0.002,0.02-0.002h24.508c1.065,0,1.93-0.864,1.93-1.93v-5.899c0-0.512-0.204-1.002-0.565-1.364  C96.768,66.158,96.277,65.954,95.766,65.954z M6.146,71.854l-0.001-2.329c2.691-0.827,4.653-3.336,4.653-6.293  s-1.962-5.466-4.651-6.292v-0.647c2.689-0.826,4.651-3.335,4.651-6.295c-0.003-2.954-1.963-5.461-4.651-6.289l0.001-0.649  c2.688-0.826,4.647-3.334,4.65-6.291c0-2.957-1.961-5.464-4.651-6.29v-2.333h63.16l0.002,43.709H6.146z M93.836,71.854H73.168  l-0.002-43.709h20.668l0.001,2.331c-2.69,0.827-4.652,3.335-4.652,6.293c0.003,2.955,1.964,5.463,4.651,6.291v0.648  c-2.688,0.828-4.648,3.335-4.651,6.291c0,1.756,0.684,3.408,1.925,4.65c0.774,0.774,1.706,1.333,2.726,1.644l0.001,0.644  c-1.018,0.312-1.95,0.869-2.724,1.643c-1.243,1.243-1.927,2.896-1.926,4.65c-0.001,1.759,0.684,3.411,1.927,4.655  c0.773,0.774,1.707,1.332,2.725,1.643V71.854z M61.724,33.904l-41.435,0.002c-1.065,0.001-1.929,0.864-1.93,1.93l-0.004,28.327  c0,0.512,0.204,1.002,0.565,1.364c0.361,0.361,0.853,0.565,1.364,0.565h41.438c1.065,0,1.93-0.864,1.93-1.93V35.834  c0-0.512-0.204-1.002-0.565-1.364C62.726,34.108,62.235,33.904,61.724,33.904z M59.794,62.233H22.215l0.003-24.469l37.576-0.001  V62.233z M26.629,47.304l24.946,0.004c1.065,0,1.929-0.864,1.93-1.93c0-1.065-0.864-1.929-1.93-1.93l-24.946-0.004  c-1.065,0-1.929,0.864-1.93,1.93C24.699,46.439,25.563,47.303,26.629,47.304z M26.625,56.551h16.282c1.065,0,1.93-0.864,1.93-1.93  s-0.864-1.93-1.93-1.93H26.625c-1.065,0-1.93,0.864-1.93,1.93S25.56,56.551,26.625,56.551z"/></svg>