<svg id="_01" data-name="01" xmlns="http://www.w3.org/2000/svg" viewBox="0 0 160 90"><defs><style>.cls-1{fill:#fff;}</style></defs><title>Logos</title><path id="a_and_e" data-name="a and e" class="cls-1" d="M98.9,54.11a.73.73,0,1,1,.73.76.73.73,0,0,1-.73-.76m-.16,0a.89.89,0,1,0,.89-.88A.89.89,0,0,0,98.73,54.11Zm.55.52h.16v-.44h.17l.28.44h.17l-.3-.46a.27.27,0,0,0,.27-.28c0-.2-.12-.29-.36-.29h-.4v1Zm.16-.9h.21c.11,0,.23,0,.23.16s-.13.17-.27.17h-.17ZM83,35a4.53,4.53,0,0,1,2.46,4.19,4.25,4.25,0,0,1-2.05,3.53s-.92.71-1.43,1.05l3.76,4.45c.11-.15,1.65-1.56,1.65-1.56h9.78V42.85H87.4V39.41H97.84V35H83m6.29,15.16-1.07,1.06,3,3.63h6.58v-4.7ZM77.56,35H67.43l-8,19.86H66.2l1.3-3.68h6.3a7.24,7.24,0,0,1-.34-2.29c0-2.59,1.85-4.27,3.58-5.44a6.65,6.65,0,0,1-2-4.3A4.4,4.4,0,0,1,77.56,35Zm-9,11.77,2.33-6.88,2.26,6.88Zm11.76-8.91A1.23,1.23,0,0,0,79,39.19,3.32,3.32,0,0,0,80,41c.22-.14.67-.46.67-.46a1.77,1.77,0,0,0,.92-1.37,1.25,1.25,0,0,0-1.32-1.33m-1.06,8.51A3.39,3.39,0,0,0,77.66,49a2.94,2.94,0,0,0,2.55,2.72,3.53,3.53,0,0,0,2.55-.91"/></svg>