<svg id="_01" data-name="01" xmlns="http://www.w3.org/2000/svg" viewBox="0 0 160 90"><defs><style>.cls-1{fill:none;}.cls-2{fill:#fff;}</style></defs><title>Logos</title><rect class="cls-1" x="20" y="-3489" width="1440" height="8095"/><path class="cls-2" d="M99.05,54.92l.28-1-.85.67-.9-.59.29,1-.78.62,1,0,.37.94.36-1,1.07,0ZM97.9,58.34l.46-1-.93.49-.85-.68.16,1-.88.46,1.07.16.2,1.07.47-1,1.06.15Zm2.62-6.72-1-.41.06-1.07-.68.83-1-.41.54.9-.68.83,1-.26.57.93.1-1.07Zm-.08-3.81-1.06-.23-.1-1.07-.55.93-1.06-.26.72.81-.57.93,1-.41.73.81-.1-1.09ZM98.16,43l-.37,1-1.06,0,.85.67-.37,1,.91-.63.86.65-.31-1,.88-.6-1.09,0Zm-2-2.38-1.07.18,1,.49-.16,1.07.75-.76,1,.46-.49-.94.73-.78-1.06.18-.52-.93Zm-1.42-1.87,1,.28-.67-.83.63-.91-1,.37-.67-.85,0,1.06-1,.39,1,.28,0,1.07Zm-3.58-4.31.28,1-.9.59,1.07,0,.28,1.06.47-1h1l-.73-.65.26-1-.9.6ZM88.78,34l.49,1L89.45,34l1.09-.15-.94-.52.16-1L89,33l-1-.42.44,1-.73.67Zm-2.91-2.21,0-1.07-.6.9-1-.24.6.81-.52.86,1-.34.7.83-.1-1,1.06-.47ZM81,31.56l-.36,1,.93-.54.83.73-.26-1.06.94-.55L82,31.07l-.26-1-.37,1-1.07-.08Zm-4,1.17.8-.68.93.54-.42-1,.78-.72-1.06.1-.46-1-.2,1-1.07.13.91.52ZM74.9,32.3l.65-.88-1,.33-.62-.9V32l-1,.28,1,.34,0,1.06.65-.83,1,.34Zm-2.77,2.05-.78-.75.46-1-1,.5-.73-.75.18,1.06-.93.5,1,.16.18,1,.49-1Zm-3.91,1.82,1.11-.1-.93-.57.23-1-.85.7-.9-.57.42,1-.8.72,1.06-.08.41,1Zm-2.41,1.77.08-1.07-.7.85-1-.41.57.91-.68.81,1-.26.57.91.07-1.07,1.07-.23Zm-2.3,1.74-.54.93-1-.18.73.75-.5,1,1-.46.72.8-.11-1.06,1-.47-1.06-.23ZM62.33,44.8l.86-.65-1.07,0-.36-1-.33,1-1.07,0,.88.6-.29,1,.85-.63.86.62Zm-.73,3.42.73-.83-1,.18-.57-.85-.11,1-1,.24,1,.42-.1,1.06.7-.78,1,.42Zm-2.12,3.6,1,.23.11,1.07.55-.9,1,.21-.7-.81.55-.94-1,.44-.73-.8.11,1.06Zm.7,3.79,1.06.07.29,1,.37-1,1.07.07-.85-.68.42-1-.93.6L60.8,54l.28,1Zm3.08,2.72.21-1.07L62.7,58l-1-.52.46,1-.75.73,1.06-.15L63,60l.18-1,1.07-.15Zm25.17-6.15,0,.08L89,53a1.79,1.79,0,0,1,.18.44l0,.26.08.15,2.72,3.26,0-.07,0-.06-1.32-2.07a.77.77,0,0,1-.1-.24l0-.28-.08-.23-.63-.8-1.22-1.17C88.46,52.17,88.42,52.14,88.42,52.17ZM75.84,50.35l-.34.52a3,3,0,0,1-.41.46,2,2,0,0,0-.36.28l-.2.24-1.3,1.89a1,1,0,0,0-.16.41.2.2,0,0,0,0,.15s0,.08,0,.16a1.4,1.4,0,0,1-.24.33l-.23.7-.31.6c0,.13-.07.26-.08.37a2.11,2.11,0,0,1-.16.44L71.53,58a.36.36,0,0,0,0,.31l.39-.55.29-.23.18-.18.16-.13.16-.26a1.36,1.36,0,0,1,.23-.39l.26-.31a.11.11,0,0,1,.07-.1l.1-.16.2-.39a1.19,1.19,0,0,1,.29-.33L74.2,55l1.22-2.13a2.24,2.24,0,0,1,0-.57l.08-.55a2.41,2.41,0,0,1,.26-.75l.28-.57c.08-.16.1-.28,0-.33Zm-4.07,2.12c.11-.16.15-.26.11-.28s-.08,0-.21.1l-.9.8a8,8,0,0,0-.63.67l-3.32,4.59,1.86-2.12c.49-.55.81-.94,1-1.12l.16-.1L70,55l.16-.1Zm16.6,3.47a3.43,3.43,0,0,1,.6.65l1.2,1.5.68,1c.08.1.13.16.2.18s0-.16-.08-.37l-1-1.9a10.57,10.57,0,0,1-.54-1c-.06-.11-.11-.18-.16-.2l-.11-.11a2.5,2.5,0,0,1-.33-.47,2.2,2.2,0,0,0-.21-.39l-1-.86-.46-.49-.24-.2L86.73,53l0-.54-.06-.16-.28-.37-2.28-2.52-.23-.2a.58.58,0,0,0,.07.15l.07.15.5.8.11.24v.18l0,.21.23.42.26.33.33.59a2.39,2.39,0,0,1,.2.54l.16.2.21.47a4.57,4.57,0,0,0,.34.7l.88,1.2.18.23.47.13,0,0A1.09,1.09,0,0,1,88.37,55.93Zm-7.65-8.58.41,1.32q0,.24,0,.29a.26.26,0,0,1-.06.24l-.18.21a.6.6,0,0,0-.16.28.69.69,0,0,0,.15.41l0,.11.2.57.37,1.61.33.83c.06.1.11.16.15.15s0,0,.16.07l.34.1a.33.33,0,0,1,.24.18s.1.1.16.29l.23.65a4.9,4.9,0,0,0,.26.65l1.06,2.6.21.65.36.88a2.21,2.21,0,0,0,.24.34s0,.07.1.07l.39,0-.26-.6-.23-.86-.11-.28,0-.21a.14.14,0,0,1,0-.11l.2-.13,0-.37-.11-.46-.1-.23-.18-.2-.24-.47L84,54.34a.88.88,0,0,1,0-.44.1.1,0,0,1,0-.13l.15-.11c.07,0,.08-.08.08-.16s0-.13-.08-.34l-.39-.85-1.56-2.82,0-.11-1.4-2.44c-.1-.11-.13-.13-.13,0A3.43,3.43,0,0,0,80.72,47.35Zm15.63-1.68a16.49,16.49,0,0,0-5.66-8.48,17.23,17.23,0,0,0-9.88-3.68,17.61,17.61,0,0,0-5.44.57,17.08,17.08,0,0,0-8.66,5.57,16.59,16.59,0,0,0-3.79,9.83,18.14,18.14,0,0,0,.23,2.88,19.61,19.61,0,0,0,.54,2.49c.23.75.44,1.4.65,2l.78,1.74,7-8.22,2-2.15a1.05,1.05,0,0,1,.44-.08l.41,0a.45.45,0,0,0,.34-.24l3.58-2.93a6.79,6.79,0,0,1,1-.7l.51-.07a1.14,1.14,0,0,1,.49.1,4.8,4.8,0,0,1,.73.62l.83.77.72.49a1,1,0,0,0,.34.08l.26.2.33.41a6.77,6.77,0,0,0,.72.77,18.67,18.67,0,0,0,1.4,1.24,2.24,2.24,0,0,0,.33.34.54.54,0,0,0,.2.07l.26.11.2.16a.84.84,0,0,0,.21.1l.39.08a1.32,1.32,0,0,1,.46.33l.73.85c.29.33.6.73.93,1.17L91.22,54l3.48,4.62,1.4-3.68c.21-.67.41-1.33.55-2a8.89,8.89,0,0,0,.28-1.82A16.56,16.56,0,0,0,96.35,45.68Zm-7.86-4.9H89l-.11.33.44-.26.39-.15h.15a.39.39,0,0,1,.23.08.27.27,0,0,1,0,.23l-.59,1.2-.11.2,0,.1a.28.28,0,0,0,0,.16l0,0h.15a.66.66,0,0,0,.33-.18,1.34,1.34,0,0,0,.39-.54l.5-1h-.34l.08-.24H91l.42-.93H92l-.41.93H92l-.1.24h-.47l-.77,1.74a.42.42,0,0,0,0,.33c0,.08.07.11.1.11h.16a1,1,0,0,0,.33-.18,1.77,1.77,0,0,0,.44-.5l.23,0-.11.16-.26.34a1,1,0,0,1-.88.41l-.16-.07-.26-.2a.53.53,0,0,1-.11-.42l-.15.1-.37.2-.47.13H89a.36.36,0,0,1-.13-.08.31.31,0,0,1-.06-.15.82.82,0,0,1,0-.23l.6-1.22c.06-.16.1-.28.06-.34H89.4l-.13,0a.92.92,0,0,0-.34.21,2,2,0,0,0-.42.62L88,43.12h-.57l.26-.47-.11.13L87.2,43a1.21,1.21,0,0,1-.49.13l-.08,0L86.49,43a.49.49,0,0,1-.07-.29l-.13.1L86,43l-.37.15-.21,0a.52.52,0,0,1-.16-.16.42.42,0,0,1,0-.31l.47-1.16-.15,0-.31,0,0,.18-.13.34-.1.16-.28.37-.31.28-.39.24a1.24,1.24,0,0,1-.44.11.5.5,0,0,1-.39-.15.67.67,0,0,1-.18-.28l0-.16-.41.39a.72.72,0,0,1-.37.15l-.23,0a.37.37,0,0,1-.18-.13.36.36,0,0,1,0-.33l.7-1.56,0-.08h-.1a.38.38,0,0,0-.21.11,1.65,1.65,0,0,0-.34.46l-.67,1.45h-.63l.81-1.86,0,0-.08-.08-.11,0-.26.18a1.58,1.58,0,0,0-.33.46l-.57,1.3h-.57l.18-.41-.47.36a.6.6,0,0,1-.39.11l-.07,0a.29.29,0,0,1-.15-.07.42.42,0,0,1-.1-.37l-.13.11-.31.21a1,1,0,0,1-.44.13l-.15,0a.31.31,0,0,1-.21-.2c-.13-.24,0-.67.46-1.24l-.26.11-.2,0c-.08,0-.11-.18-.1-.36h0l-.36.5h0L76,43.12h-.5l.26-.55-.42.36-.31.21a.44.44,0,0,1-.26.08.37.37,0,0,1-.2-.1.44.44,0,0,1-.07-.28l0-.13-.16.15-.39.26a.73.73,0,0,1-.42.1l-.11-.07a.43.43,0,0,1-.16-.23.7.7,0,0,1,0-.41,1.28,1.28,0,0,1,.13-.36l.08-.16a4,4,0,0,1,.9-.88,2.92,2.92,0,0,1,.68-.31l.42,0,.26,0,.1,0-.7,1.64v.1a.11.11,0,0,0,.08.11c.08,0,.18-.07.31-.2l.37-.42.23-.34.44-.91h.52l-.2.42.11-.08.47-.39.07,0,.13-.07a.12.12,0,0,1,.13.08c0,.07,0,.24-.16.5l-.07.1v.08h0l.11,0,.26-.18a2.93,2.93,0,0,1,.55-.31,2.12,2.12,0,0,1,.65-.2l.37,0,.18,0-.59,1.3-.13.41,0,0,0,.08.08,0h.08l.23-.11a1.7,1.7,0,0,0,.31-.39l.65-1.37h.54l-.18.37L80.9,41a2.41,2.41,0,0,1,.36-.18.66.66,0,0,1,.36-.1.55.55,0,0,1,.24.1l.08.18v.08l.11-.08.29-.15a1.87,1.87,0,0,1,.46-.11h.08l.13,0a.23.23,0,0,1,.08.21l-.73,1.69v.07s0,0,.06.07.15,0,.26-.18a1.36,1.36,0,0,0,.31-.42l.2-.49c.07-.13.15-.26.23-.39a2.19,2.19,0,0,1,.49-.46,1.58,1.58,0,0,1,.75-.26l.18,0a.65.65,0,0,1,.33.18.66.66,0,0,1,.13.54h.15a1,1,0,0,0,.31-.16,1,1,0,0,0,.31-.47l.54,0-.73,1.79v0h0v.13s0,.07.1,0l.29-.16a1.67,1.67,0,0,0,.34-.39l.67-1.42h.57l-.76,1.71,0,.13a.09.09,0,0,0,0,.11l.11,0a1.09,1.09,0,0,0,.31-.26,3.12,3.12,0,0,0,.49-.73ZM68.92,39.33a3.8,3.8,0,0,0-.57.75,4.73,4.73,0,0,0-.28.63L68,41a1.08,1.08,0,0,0,.16,1,.8.8,0,0,0,.29.23l.29.08.15,0a1.13,1.13,0,0,0,.54-.2.74.74,0,0,0,.2-.24l0-.15,0-.23a.43.43,0,0,1,.11-.26.23.23,0,0,1,.18-.08.42.42,0,0,1,.36.11l.08.13v.15c0,.08,0,.18-.11.33a1.41,1.41,0,0,1-.46.39,2.56,2.56,0,0,1-1,.21h0l-.46-.1L68,42.18a1.55,1.55,0,0,1-.72-1.24.91.91,0,0,1,0-.31,3.28,3.28,0,0,1,.21-.59,1.94,1.94,0,0,1,.39-.55,2.73,2.73,0,0,1,.77-.6,6,6,0,0,1,2.7-.7,5.44,5.44,0,0,1,1.27.15,3.33,3.33,0,0,1,.83.36,1.87,1.87,0,0,1,.49.44,2,2,0,0,1,.33.59.8.8,0,0,1,0,.42,1.43,1.43,0,0,1-.47.93,3.22,3.22,0,0,1-.88.52l-1,.26-.18,0-.28.77-.57,1a3.72,3.72,0,0,1-.44.44,3.4,3.4,0,0,1-.78.46,4.68,4.68,0,0,1-.81.26l-.63.08a1.94,1.94,0,0,1-.77-.11,1.64,1.64,0,0,1-.6-.37,1,1,0,0,1-.33-.63.72.72,0,0,1,.13-.52.62.62,0,0,1,.36-.28l.2,0,.18.08a.46.46,0,0,1,.13.37l0,.15-.24.34a.72.72,0,0,0,0,.28l0,.1.11.18a.52.52,0,0,0,.24.16l.55.08a2.39,2.39,0,0,0,.78-.2,2.25,2.25,0,0,0,.57-.36l.34-.34.11-.18h0a2.08,2.08,0,0,0,.24-.39l1-2.41a4.48,4.48,0,0,1,.57-.83,1.76,1.76,0,0,1,.46-.39,2.32,2.32,0,0,1,.33-.15l.11,0v0h0a1.07,1.07,0,0,0-.37.46,3.92,3.92,0,0,0-.28.7l-.29,1,.24,0,.28-.1a2,2,0,0,0,.85-.81,2.26,2.26,0,0,0,.2-.5l.07-.36,0-.29a1.52,1.52,0,0,0-.23-.5,1.67,1.67,0,0,0-.62-.5,3,3,0,0,0-1.17-.23,4.65,4.65,0,0,0-1.46.31A3.46,3.46,0,0,0,68.92,39.33Zm4.88,3.26v.15s.07.08.16.08a.32.32,0,0,0,.24-.1l.23-.26.1-.13a7.06,7.06,0,0,0,.54-.9l.16-.34-.11,0a.51.51,0,0,0-.31.11,2.19,2.19,0,0,0-.54.49,3.63,3.63,0,0,0-.37.59A1.06,1.06,0,0,0,73.81,42.58ZM79,41.05,79,41a.91.91,0,0,0-.28.1,2.84,2.84,0,0,0-.5.5L78,42l-.13.23-.11.36,0,.15.16.07.26-.16.21-.26.54-.94.13-.31Zm5.62.7a1.34,1.34,0,0,0,.13-.49l0-.24,0-.08a.41.41,0,0,0-.33.1,1.94,1.94,0,0,0-.28.34l-.23.37-.08.16a6.81,6.81,0,0,0-.28.81c0,.15,0,.24,0,.26l0,0a.36.36,0,0,0,.29-.1l.23-.24.1-.13A8,8,0,0,0,84.66,41.75Z"/></svg>