<svg id="_01" data-name="01" xmlns="http://www.w3.org/2000/svg" viewBox="0 0 160 90"><defs><style>.cls-1{fill:#fff;}.cls-2{fill:none;}</style></defs><title>Logos</title><path id="Vans" class="cls-1" d="M104.15,52.38l0,0a.62.62,0,0,1,.23,0h0l.08,0,0,0h0s0,0,0,0l0,0s0,0,0,0a.15.15,0,0,1,0,0,.14.14,0,0,1,0,0l0,.06a.52.52,0,0,1,0,.26l0,0a.19.19,0,0,1,0,.06s0,0,0,0l0,0,0,0h0l0,0h0s0,0,0,0l0,0a.6.6,0,0,1-.26,0l-.11,0s0,0,0,0-.06,0-.08,0a.47.47,0,0,1-.11-.11l0,0s0,0,0,0,0,0,0-.1a.55.55,0,0,1,0-.26l0,0a.19.19,0,0,1,0-.06.41.41,0,0,1,.08-.11l.08,0,.08,0Zm-.28.66s0,0,0,0a.42.42,0,0,0,.31.18.44.44,0,0,0,.34-.13s0-.05,0-.06,0-.05,0-.08l0,0a.3.3,0,0,0,0-.18.69.69,0,0,0,0-.08l0,0a.49.49,0,0,0,0-.08.31.31,0,0,0-.11-.06s0,0,0,0h0l0,0a.41.41,0,0,0-.19,0l-.08,0,0,0h0l0,0h0l0,0s-.06.1-.1.15V53A.2.2,0,0,1,103.88,53Zm.16-.47c.14,0,.31,0,.39,0s0,.13,0,.16-.05,0-.06.08.07.12.08.21-.11,0-.1,0,0-.21-.18-.18,0,.17,0,.21h0c-.05,0,0-.06,0-.1s0-.25,0-.36Zm.11.06a.19.19,0,0,0,0,.16c.09,0,.18,0,.19-.08S104.25,52.63,104.15,52.64Zm-28-10.82q2,5.76,4.06,11.51H76.88c0-.08-.57-1.64-.57-1.66h0s0-.09,0-.11H71.93l-.62,1.78H68c0-.06,4.25-11.38,4.29-11.54h3.82S76.13,41.81,76.14,41.82Zm-2,3.36h0s-.43,1.34-.44,1.36-.84,2.67-.85,2.71h2.58C75.44,49.16,74.17,45.2,74.17,45.18Zm7.42-3.53h3.33s0,0,0,0,3.94,7.09,4,7.12,0-.07,0-.1c0-1.13,0-5.85,0-7h3V53.38H88.64l-4-6.24,0,0v6.28h-3V41.69S81.58,41.65,81.59,41.65ZM59,36.45c0,.05,4.15,12.11,4.19,12.36.06,0,4.2-11.64,4.44-12.21,0-.08,33.06,0,36,0v2.93c-5.92,0-32.81-.07-33.15,0,0,0-5.34,14-5.37,13.93s-3.8,0-4,0c-.06-.17-5.9-16.94-5.91-16.94C56.51,36.45,59,36.39,59,36.45Zm44.56,8.31-3,0s-.27-1.06-2.06-1.06a2.57,2.57,0,0,0-1.67.68.86.86,0,0,0,0,.95,1.4,1.4,0,0,0,.63.32c.48.15,2.62.61,2.62.61a13.5,13.5,0,0,1,2.19.69,3.23,3.23,0,0,1,1.39,1.39,3.58,3.58,0,0,1-1.44,4.48,5.88,5.88,0,0,1-3.45.81s-4.95.16-5.13-3.71h3s0,1.27,2.14,1.23c0,0,2.44.11,2.16-1.38,0,0-.09-.42-.74-.59l-2.45-.57a9.19,9.19,0,0,1-2.95-1.1,2.91,2.91,0,0,1-1.05-2.39s-.18-3.9,4.68-3.85C98.5,41.21,103.09,41.08,103.59,44.76Z"/><rect class="cls-2" x="-700" y="-3489" width="1440" height="8095"/></svg>