<svg id="_01" data-name="01" xmlns="http://www.w3.org/2000/svg" viewBox="0 0 160 90"><defs><style>.cls-1{fill:#fff;}.cls-2{fill:none;}</style></defs><title>Logos</title><path id="Adidias" class="cls-1" d="M99.7,53.27H98a1.16,1.16,0,0,0-.25-.6,1.31,1.31,0,0,0-.94-.28,1.4,1.4,0,0,0-.9.22.56.56,0,0,0-.19.44c0,.26.37.47,1.09.63a17.27,17.27,0,0,1,1.78.46l.24.1a1.68,1.68,0,0,1,1.1,1.58,2,2,0,0,1-1.07,1.89l-.27.13a4.05,4.05,0,0,1-1.6.3,4.4,4.4,0,0,1-2.19-.48,2.07,2.07,0,0,1-.79-.77,2.16,2.16,0,0,1-.26-1.08h1.82a.86.86,0,0,0,.34.72A1.87,1.87,0,0,0,97,56.8a1.36,1.36,0,0,0,.9-.25.56.56,0,0,0,.23-.44c0-.28-.36-.5-1.07-.66a11.66,11.66,0,0,1-2-.55A1.67,1.67,0,0,1,94,53.3a2.09,2.09,0,0,1,.57-1.49A2.82,2.82,0,0,1,96.67,51a4.49,4.49,0,0,1,1.89.34l.11.06a1.9,1.9,0,0,1,.77.74A2.19,2.19,0,0,1,99.7,53.27ZM98.77,49a.14.14,0,0,0,0-.09.13.13,0,0,0-.08-.06l-.11,0h-.28v.34h.28a.26.26,0,0,0,.16,0A.15.15,0,0,0,98.77,49Zm.14-.18A.26.26,0,0,1,99,49a.29.29,0,0,1-.09.22.35.35,0,0,1-.23.1l.1.06.17.22.13.22h-.22l-.1-.18a1,1,0,0,0-.17-.24l0,0-.14,0h-.11v.48H98.1V48.71h.46a.64.64,0,0,1,.22,0A.26.26,0,0,1,98.91,48.86Zm.51.41a.87.87,0,0,0-.11-.44A.84.84,0,0,0,99,48.5a.92.92,0,0,0-.43-.11h0a.92.92,0,0,0-.42.11.84.84,0,0,0-.32.32.85.85,0,0,0,0,.87.81.81,0,0,0,.32.32.86.86,0,0,0,.43.11h0A.86.86,0,0,0,99,50a.81.81,0,0,0,.32-.32A.86.86,0,0,0,99.42,49.26Zm.17,0a1,1,0,0,1-.14.51.91.91,0,0,1-.38.38,1,1,0,0,1-.52.14h0a1,1,0,0,1-.51-.14.91.91,0,0,1-.38-.38,1,1,0,0,1-.14-.51,1,1,0,0,1,.14-.53,1,1,0,0,1,.39-.38,1.13,1.13,0,0,1,.51-.14h0a1.06,1.06,0,0,1,.51.14.92.92,0,0,1,.39.38A1,1,0,0,1,99.6,49.26ZM89.41,40.8,94.33,49h-7.9l-4.69-7.83-3.56-5.92,3.56-2.14L84,31.76ZM93,54.68V58H91.35v-.37a3.5,3.5,0,0,1-1.92.57h0a3.56,3.56,0,0,1,0-7.11h0a3.5,3.5,0,0,1,1.92.57V51.3H93Zm-1.63.37v-.74a2,2,0,0,0-1.92-1.58h0a2,2,0,0,0,0,3.91h0A2,2,0,0,0,91.35,55.05Zm-6-.37V58H83.67v-.37a3.51,3.51,0,0,1-1.92.57h0a3.56,3.56,0,0,1,0-7.11h0a3.52,3.52,0,0,1,1.92.57V49H85.3Zm-1.63.37v-.74a2,2,0,0,0-1.92-1.58h0a2,2,0,0,0,0,3.91h0A2,2,0,0,0,83.67,55.05Zm-1.93-9.28L83.66,49H75.77L71.39,41.7l-.19-.32.19-.11L77,37.89Zm-6,5.35h1.78V58H75.78Zm0-2.1h1.78v1.56H75.78ZM75,54.68V58H73.33v-.37a3.53,3.53,0,0,1-1.92.57h0a3.56,3.56,0,0,1,0-7.11h0a3.54,3.54,0,0,1,1.92.57V49H75Zm-1.63.37v-.74a2,2,0,0,0-1.92-1.58h0a2,2,0,0,0,0,3.91h0A2,2,0,0,0,73.33,55.05ZM71.39,46.3,73,49h-7.9l-.89-1.48L70,44Zm-4.18,8.38V58H65.58v-.37a3.53,3.53,0,0,1-1.92.57h0a3.56,3.56,0,0,1,0-7.11h0a3.54,3.54,0,0,1,1.92.57V51.3h1.63Zm-1.63.37v-.74a2,2,0,0,0-1.92-1.58h0a2,2,0,0,0,0,3.91h0A2,2,0,0,0,65.58,55.05Z"/><rect class="cls-2" x="-700" y="-3709" width="1440" height="8095"/></svg>