<svg id="_01" data-name="01" xmlns="http://www.w3.org/2000/svg" viewBox="0 0 160 90"><defs><style>.cls-1{fill:#fff;}.cls-2{fill:none;}</style></defs><title>Logos</title><g id="Spotify"><path class="cls-1" d="M58.32,35.71A9.29,9.29,0,1,0,67.61,45,9.29,9.29,0,0,0,58.32,35.71Zm4.26,13.4a.58.58,0,0,1-.8.19c-2.18-1.33-4.93-1.63-8.16-.9a.58.58,0,1,1-.26-1.13c3.54-.81,6.57-.46,9,1A.58.58,0,0,1,62.58,49.11Zm1.14-2.53a.72.72,0,0,1-1,.24,12.19,12.19,0,0,0-9.25-1.08A.72.72,0,1,1,53,44.35a13.55,13.55,0,0,1,10.43,1.23A.72.72,0,0,1,63.72,46.58Zm.1-2.63c-3-1.78-7.93-1.94-10.79-1.07a.87.87,0,1,1-.5-1.66c3.28-1,8.73-.8,12.18,1.24a.87.87,0,0,1-.89,1.49Zm13.24,2.89c0,1.58-1.21,2.6-3.07,2.6a5.23,5.23,0,0,1-3.53-1.36.1.1,0,0,1,0-.15l.88-1a.1.1,0,0,1,.07,0,.11.11,0,0,1,.08,0A3.68,3.68,0,0,0,74,47.93c.84,0,1.37-.36,1.37-1s-.26-.83-1.79-1.18c-1.8-.44-2.85-1-2.85-2.59s1.21-2.53,2.94-2.53a4.74,4.74,0,0,1,3.08,1.07.11.11,0,0,1,0,.14L76,43a.1.1,0,0,1-.07,0,.1.1,0,0,1-.08,0,3.65,3.65,0,0,0-2.19-.83c-.75,0-1.25.36-1.25.89s.29.83,1.89,1.21C76.26,44.76,77.05,45.5,77.05,46.83Zm4.22-4.13a2.52,2.52,0,0,0-2,1v-.73a.11.11,0,0,0-.1-.11H77.71a.11.11,0,0,0-.1.11V51.1a.11.11,0,0,0,.1.11h1.44a.11.11,0,0,0,.1-.11V48.53a2.58,2.58,0,0,0,2,.91,3.1,3.1,0,0,0,3-3.37A3.1,3.1,0,0,0,81.27,42.71Zm1.35,3.37A1.73,1.73,0,0,1,80.94,48a1.92,1.92,0,0,1,0-3.82A1.75,1.75,0,0,1,82.63,46.07Zm5.57-3.37a3.38,3.38,0,1,0,3.44,3.37A3.39,3.39,0,0,0,88.2,42.71Zm0,5.29a1.83,1.83,0,0,1-1.81-1.92,1.78,1.78,0,0,1,1.78-1.9A1.83,1.83,0,0,1,90,46.1,1.79,1.79,0,0,1,88.2,48Zm7.68-5.06v1.23a.1.1,0,0,1-.1.11H94.19v3c0,.47.21.68.67.68a1.81,1.81,0,0,0,.84-.2.11.11,0,0,1,.15.09V49a.1.1,0,0,1-.05.09,2.62,2.62,0,0,1-1.35.33,1.71,1.71,0,0,1-1.91-1.94V44.28h-.69a.1.1,0,0,1-.1-.11V42.94a.1.1,0,0,1,.1-.11h.69V41.22a.11.11,0,0,1,.11-.11h1.44a.11.11,0,0,1,.1.11v1.62h1.58A.1.1,0,0,1,95.87,42.94Zm7.85-.1a.1.1,0,0,1,.1.07l1.68,4.38L107,42.91a.11.11,0,0,1,.1-.07h1.49a.1.1,0,0,1,.1.14l-2.49,6.44c-.52,1.33-1.1,1.82-2.16,1.82a3,3,0,0,1-1.53-.39.1.1,0,0,1,0-.14l.49-1.07a.11.11,0,0,1,.06-.06.11.11,0,0,1,.08,0,1.66,1.66,0,0,0,.79.22c.31,0,.54-.1.78-.62l-2.05-4.92H101.3v4.93a.11.11,0,0,1-.11.11H99.76a.1.1,0,0,1-.1-.11V44.28H99a.11.11,0,0,1-.11-.11V42.94a.11.11,0,0,1,.11-.11h.69v-.3c0-1.41.7-2.16,2-2.16a3.94,3.94,0,0,1,1.19.17.11.11,0,0,1,.07.1v1.21a.1.1,0,0,1-.14.1,2.42,2.42,0,0,0-.81-.15c-.5,0-.73.26-.73.84v.2Zm-5.54.1v6.26a.11.11,0,0,1-.11.11H96.65a.11.11,0,0,1-.11-.11V42.94a.11.11,0,0,1,.11-.11h1.44A.11.11,0,0,1,98.19,42.94ZM98.4,41a1,1,0,1,1-1-1A1,1,0,0,1,98.4,41Zm11.55,3.84a1,1,0,1,1,1-1A1,1,0,0,1,109.95,44.85Zm0-1.93a.91.91,0,1,0,.9.91A.9.9,0,0,0,110,42.92Zm.22,1,.29.4h-.24L110,44h-.22v.37h-.2V43.28H110c.25,0,.41.13.41.34A.32.32,0,0,1,110.18,43.94Zm-.17-.48h-.26v.34H110c.13,0,.21-.06.21-.17S110.14,43.46,110,43.46Z"/></g><rect class="cls-2" x="-340" y="-3489" width="1440" height="8095"/></svg>