<svg id="_01" data-name="01" xmlns="http://www.w3.org/2000/svg" viewBox="0 0 160 90"><defs><style>.cls-1{fill:#fff;}.cls-2{fill:none;}</style></defs><title>Logos</title><path id="MTV" class="cls-1" d="M72.78,47.83V58.5l1.8-1.36v-7.5Zm3.87,2.49L79,49.79l.95-.78V47.6Zm-.29-17L73,31.83l3,3.35,1.13-1.12Zm22.88,1.72a2.28,2.28,0,0,0-1.38-.26,2,2,0,0,0-1.13.52l-.73.72-.2.31-.65.81h0V32.7l-2-1.2v8.16l0,0-.48.56V31.5H80.36L76,35.85,72.11,31.5H60v27H72.31V46.59l3.63,3.74,4.46-3.8V58.47H92.66V47.09l.17-.29.1-.15.22-.36V58.47l2-1.37V42.73l.22-.32.31-.46.46-.67L96.3,41l.42-.6a.91.91,0,0,1,.41-.37l0,0,.06,0,.22-.22.38-.32.65-.3.6-.33.55-.68.29-.91.09-.88a1.84,1.84,0,0,0-.79-1.29M84.46,42.41c0,.09.06.88.06,1,0,.4,0,.83,0,1s0,.6,0,.6c0,.36.11.76.12.83s-.05.89,0,1.06a2.82,2.82,0,0,1,0,.4,2.7,2.7,0,0,0,0,.49c0,.15,0,.31,0,.49s0,.54,0,.77c0,.06,0,.48,0,.48a4.63,4.63,0,0,0,0,1.28c0,.09,0,.37,0,.42s.1.4.12.48a5.51,5.51,0,0,0,.12.74c.05.12.27.64.29.7a1.82,1.82,0,0,1,.07.92,9,9,0,0,1-.3.91c-.08.12-.19.19-.25.27a.57.57,0,0,1-.24.19,1.93,1.93,0,0,1-1.16.05,2.11,2.11,0,0,1-.71-.21,1.09,1.09,0,0,1-.35-.74c0-.1,0-.36,0-.4s-.1-.44-.1-.56a3.09,3.09,0,0,0,0-.49c0-.22-.14-.58-.14-.58s-.11-.46-.11-.47a3.11,3.11,0,0,1-.15-.66,2.16,2.16,0,0,1,.12-.93,2.85,2.85,0,0,0,.11-.44c0-.1-.07-.6-.05-.76s.06-.28.06-.31,0-.51,0-.57a6.85,6.85,0,0,0,0-.71,2.81,2.81,0,0,1,0-.39,3.52,3.52,0,0,0,0-.67,2.52,2.52,0,0,1,0-.5,6.2,6.2,0,0,1,0-.79s0-.45,0-.57,0-.58,0-.64c-.11-1.24-.27-1.48-.34-1.53a.47.47,0,0,0-.35,0c-.08,0-.29.22-.46.31s-.49.24-.6.32a5.28,5.28,0,0,1-.74.48,1.54,1.54,0,0,0-.27.23,3.42,3.42,0,0,1-.79.58,2.05,2.05,0,0,0-.52.35c-.06.06-.28.42-.42.56a1.22,1.22,0,0,0-.25.37,1.07,1.07,0,0,1-.3.43,1.25,1.25,0,0,1-1,.08,1.47,1.47,0,0,1-.75-.8,1.44,1.44,0,0,1,.31-1.41,1.84,1.84,0,0,1,.9-.44,2.72,2.72,0,0,0,.56-.2c.07,0,.31-.22.36-.25l.4-.22a5.63,5.63,0,0,1,.53-.39l.72-.41a4.34,4.34,0,0,0,.72-.51c.06-.06.34-.16.63-.33.07,0,.39-.15.46-.18L81,41a.59.59,0,0,0,.34-.75,1.66,1.66,0,0,1-.06-.48,1.9,1.9,0,0,1,.17-.5c.05-.1.13-.09.18-.18a.54.54,0,0,1,.31-.19.82.82,0,0,1,.4-.18,2.08,2.08,0,0,1,1,.24,1.23,1.23,0,0,0,.49,0l.24-.13.38-.12.53-.25c.09,0,.31-.07.42-.1s.49-.23.61-.33a3.28,3.28,0,0,0,.37-.46,3.81,3.81,0,0,1,.48-.37,2.12,2.12,0,0,1,.56-.33,4,4,0,0,1,.49,0,.63.63,0,0,1,.59.28,1.42,1.42,0,0,1,.28.47,1.49,1.49,0,0,1-.67,1.4l-.3.1c-.14,0-.28.15-.38.18a1.15,1.15,0,0,0-.36.22l-.42.25a1.18,1.18,0,0,1-.36.24,1.61,1.61,0,0,0-.62.31,2,2,0,0,1-.56.18s-.5.21-.55.48,0,.36-.06.77a3.09,3.09,0,0,0,0,.71m15.16-5.23a3.54,3.54,0,0,1-.26.82,2.37,2.37,0,0,1-.46.58,2.54,2.54,0,0,1-.52.29c-.1,0-.56.25-.69.32a1.63,1.63,0,0,0-.47.39l-.19.2a1.3,1.3,0,0,0-.6.55,9.51,9.51,0,0,1-.58.78,3,3,0,0,1-.41.61,1.19,1.19,0,0,0-.15.19l-.15.24,0,.07a3.44,3.44,0,0,1-.27.41,1.88,1.88,0,0,0-.33.57,6.59,6.59,0,0,0-.39.7c0,.12-.27.49-.29.55a4.4,4.4,0,0,1-.37.46,2.64,2.64,0,0,0-.12.32c0,.11-.12.32-.15.41l-.14.23h0l-.12.19-.24.39-.12.17c-.06.08-.48.81-.58,1l-.15.24a2.1,2.1,0,0,0-.33.63,3.81,3.81,0,0,1-.17.43,4.28,4.28,0,0,0-.25,1,3.56,3.56,0,0,0,0,.6,2.66,2.66,0,0,1,0,.59,2.61,2.61,0,0,1-.36.92,2.84,2.84,0,0,1-.4.47,1.14,1.14,0,0,1-.78.19,1.16,1.16,0,0,1-1.1-.65,4.66,4.66,0,0,1-.26-.51,5.94,5.94,0,0,1-.38-1c0-.12-.08-.24-.12-.37s-.15-.52-.16-.58-.14-.51-.15-.55c-.05-.27-.12-.52-.19-.77a7,7,0,0,1-.18-.73,7.46,7.46,0,0,0-.26-.89s-.18-.56-.23-.76-.33-1-.33-1c-.09-.26-.32-.85-.33-1a3.3,3.3,0,0,1,0-1.68,1.19,1.19,0,0,1,.45-.34,4.34,4.34,0,0,1,.4-.23,2.26,2.26,0,0,1,.72,0,1.16,1.16,0,0,1,.45.08c.41.29.44.66.49,1.33,0,0,.07.72.11,1s.05.41.07.61,0,.3,0,.44.1.78.1.78a1,1,0,0,0,.54.75.36.36,0,0,0,.32,0,1.46,1.46,0,0,0,.56-1,.56.56,0,0,1,.08-.13,1.41,1.41,0,0,0,.26-.55,3,3,0,0,1,.28-.43,4.38,4.38,0,0,0,.25-.37l.43-.67s.16-.35.23-.48a2.35,2.35,0,0,0,.13-.32A1.55,1.55,0,0,1,92,42a3.63,3.63,0,0,0,.39-.73l.28-.47,0,0h0l.16-.21.35-.42a2.94,2.94,0,0,0,.21-.25l.34-.5a6.05,6.05,0,0,1,.38-.49c.07-.07.58-.76.66-.87l.37-.39h0l.27-.27.32-.41.32-.41c0-.06.17-.27.2-.31s.66-.65.67-.67a1.67,1.67,0,0,1,.95-.45,2,2,0,0,1,1.17.21,1.54,1.54,0,0,1,.64,1,2.66,2.66,0,0,1-.08.8"/><rect class="cls-2" x="-160" y="-3489" width="1440" height="8095"/></svg>