<svg id="_01" data-name="01" xmlns="http://www.w3.org/2000/svg" viewBox="0 0 160 90"><defs><style>.cls-1{fill:#fff;}</style></defs><title>Logos</title><path id="remington" class="cls-1" d="M33.69,51.24H31.52V38.52l.08,0c2.06,0,4.12,0,6.18,0a10.32,10.32,0,0,1,3.58.65,4.09,4.09,0,0,1,1.54,1,3,3,0,0,1,.22,3.67,4.09,4.09,0,0,1-2.4,1.7c-.61.18-1.25.28-1.88.41l5.76,5.28-.22,0c-.62,0-1.24,0-1.87,0a.6.6,0,0,1-.36-.14l-5.55-5a.67.67,0,0,0-.4-.16c-.75,0-1.5,0-2.25,0h-.27Zm0-6c1.07,0,2.11,0,3.15,0a12,12,0,0,0,1.68-.15,5,5,0,0,0,2.4-1A2.45,2.45,0,0,0,40.62,40a5.75,5.75,0,0,0-1.11-.47,19.71,19.71,0,0,0-5.77-.41l0,0Zm22.39-1.63L60.51,51a.38.38,0,0,0,.4.23,6.35,6.35,0,0,1,.85,0,.34.34,0,0,0,.37-.22q2.19-4.21,4.4-8.4a1.9,1.9,0,0,1,.13-.17v8.78h1.93V40.76c-.56,0-1.11,0-1.66,0a.39.39,0,0,0-.41.24q-1.86,3.57-3.73,7.14l-.84,1.59-1.11-1.88-4.07-6.9c0-.08-.14-.19-.21-.19-.55,0-1.09,0-1.65,0V51.23h.82V43.06Zm55.37,7.84a8.76,8.76,0,0,1-3.08-.61,4.75,4.75,0,0,1-2.95-3.64,5.21,5.21,0,0,1,1.29-4.81,5.78,5.78,0,0,1,3.36-1.74,7.11,7.11,0,0,1,4.79.71,5.39,5.39,0,0,1,1.67,8,5.13,5.13,0,0,1-3.12,1.85C112.78,51.37,112.12,51.42,111.46,51.5Zm4.42-5.59a5,5,0,0,0-.37-1.84,4.35,4.35,0,0,0-7.88-.48,5.46,5.46,0,0,0-.38,4.14,3.84,3.84,0,0,0,2.21,2.69,5,5,0,0,0,2.61.35,3.87,3.87,0,0,0,3.36-2.38A6.09,6.09,0,0,0,115.88,45.91ZM75.8,43.17l7.41,8c0,.05.11.12.17.12h1V40.8h-.82v8l-.15-.14-2.15-2.3-5-5.4c-.06-.06-.14-.14-.21-.14-.44,0-.88,0-1.33,0V51.23h.83V42.92Zm52.67-2.36h-.83v8l-.17-.16-2.31-2.48-4.85-5.21c-.05-.06-.12-.13-.19-.13h-1.35V51.23h.83V43l.06,0a1.24,1.24,0,0,0,.1.13l3.17,3.4,4.31,4.63a.41.41,0,0,0,.23.14c.33,0,.66,0,1,0Zm-34.29,6a.54.54,0,0,1,.22.5c0,.83,0,1.66,0,2.5a.47.47,0,0,1-.3.5,5.13,5.13,0,0,1-3.7.34,3.7,3.7,0,0,1-2.52-2.12,5.72,5.72,0,0,1-.49-2.57,4.54,4.54,0,0,1,3-4.36,6.55,6.55,0,0,1,3.56-.09c.22,0,.43.12.65.17a.45.45,0,0,0,0-.09c0-.19,0-.37,0-.56s0-.21-.19-.24a11.14,11.14,0,0,0-4.07,0A6,6,0,0,0,87,42.53a5.11,5.11,0,0,0-1.3,4.23A4.82,4.82,0,0,0,89,51a8.6,8.6,0,0,0,4.16.35,6,6,0,0,0,2.87-1.13.4.4,0,0,0,.18-.36c0-1.14,0-2.28,0-3.42,0-.08,0-.16,0-.24H93.55C93.79,46.43,94,46.63,94.19,46.79ZM47.29,45.32V41.53l5.84.11V40.8H45.45V51.24h7.92V50.4l-6.08.08V46h4.56v-.65ZM100,51.23h1.88V41.62h4.25V40.8H95.77v.82H100ZM70.78,40.8V51.24h1.85V40.8Z"/></svg>