<svg id="_01" data-name="01" xmlns="http://www.w3.org/2000/svg" viewBox="0 0 160 90"><defs><style>.cls-1{fill:#fff;fill-rule:evenodd;}</style></defs><title>Logos</title><path id="AppearHere" class="cls-1" d="M121.78,52.5V50.66h2V39.34h-2V37.5H126v15Zm-6.23-6.24a1.07,1.07,0,0,0,1.11,1.16,1,1,0,0,0,.93-.56h1.53a2.37,2.37,0,0,1-2.48,1.7,2.54,2.54,0,0,1-2.73-2.72,2.65,2.65,0,0,1,2.69-2.69c1.79,0,2.68,1.38,2.6,3.12Zm1.06-2a1.09,1.09,0,0,0-1.06,1h2A1,1,0,0,0,116.62,44.28Zm-3.6.38a1.16,1.16,0,0,0-1.23,1.21v2.53h-1.63V43.29h1.59v.9h0a1.49,1.49,0,0,1,1.5-1,1.71,1.71,0,0,1,.38,0v1.53A2,2,0,0,0,113,44.66Zm-7.29,1.6a1.07,1.07,0,0,0,1.12,1.16,1,1,0,0,0,.93-.56h1.53a2.37,2.37,0,0,1-2.48,1.7,2.54,2.54,0,0,1-2.73-2.72,2.65,2.65,0,0,1,2.69-2.69c1.79,0,2.68,1.38,2.6,3.12Zm1.06-2a1.09,1.09,0,0,0-1.06,1h2A1,1,0,0,0,106.78,44.28Zm-5.08,1.66v-.51c0-.49-.16-.9-.82-.9s-.88.54-.88,1.09v2.79H98.37v-7H100V44h0a1.74,1.74,0,0,1,1.52-.85c1.66,0,1.8,1.24,1.8,2v3.28h-1.63Zm-11-8.44h4.23v1.84H93V50.66h2V52.5H90.71Zm-7.63,8.18v3.83H80.8V41H83v1.58h0a2.91,2.91,0,0,1,2.64-1.81,1.65,1.65,0,0,1,.5.08V43a4,4,0,0,0-.82-.08C83.64,43,83.07,44.17,83.07,45.68Zm-6.1,3a3.72,3.72,0,0,1-2.79,1.05c-1.59,0-2.82-.81-2.82-2.55,0-3.86,5.6-1.79,5.51-3.7,0-1-.67-1.15-1.47-1.15s-1.43.36-1.5,1.28H71.62c.13-2.17,2-2.84,3.89-2.84,1.65,0,3.64.38,3.64,2.42v4.42a4.45,4.45,0,0,0,.29,1.89H77.13A3.55,3.55,0,0,1,77,48.69Zm-.1-3.34a4.43,4.43,0,0,1-1.89.49c-.7.13-1.34.39-1.34,1.25s.66,1.08,1.39,1.08a1.71,1.71,0,0,0,1.84-2Zm-12.23.48c.06,1.49.75,2.15,2,2.15a1.87,1.87,0,0,0,1.79-1.1h2a3.72,3.72,0,0,1-3.87,2.86c-2.61,0-4.23-1.84-4.23-4.47a4.21,4.21,0,0,1,4.23-4.49c2.82,0,4.2,2.43,4,5Zm1.89-3.29a1.81,1.81,0,0,0-1.89,1.81h3.7C68.13,43.17,67.64,42.54,66.53,42.54Zm-8.62,7.2a2.92,2.92,0,0,1-2.48-1.28h0v4H53.12V41h2.16V42.1h0a2.72,2.72,0,0,1,2.47-1.31c2.59,0,3.76,2.15,3.76,4.57S60.34,49.74,57.91,49.74Zm-.62-7.2c-1.49,0-2,1.36-2,2.74s.51,2.69,2,2.69,2-1.31,2-2.69S58.74,42.54,57.28,42.54Zm-9.07,7.2a2.91,2.91,0,0,1-2.48-1.28h0v4H43.42V41h2.16V42.1h0a2.72,2.72,0,0,1,2.47-1.31c2.59,0,3.76,2.15,3.76,4.57S50.64,49.74,48.21,49.74Zm-.62-7.2c-1.49,0-2,1.36-2,2.74s.51,2.69,2,2.69,2-1.31,2-2.69S49,42.54,47.59,42.54Zm-8,6.14a3.72,3.72,0,0,1-2.79,1.05c-1.59,0-2.82-.81-2.82-2.55,0-3.86,5.6-1.79,5.51-3.7,0-1-.67-1.15-1.47-1.15s-1.43.36-1.5,1.28H34.24c.13-2.17,2-2.84,3.89-2.84,1.65,0,3.64.38,3.64,2.42v4.42a4.46,4.46,0,0,0,.29,1.89H39.75A3.51,3.51,0,0,1,39.59,48.69Zm-.1-3.34a4.43,4.43,0,0,1-1.89.49c-.7.13-1.34.39-1.34,1.25s.66,1.08,1.39,1.08a1.71,1.71,0,0,0,1.84-2Z"/></svg>