<svg id="_01" data-name="01" xmlns="http://www.w3.org/2000/svg" viewBox="0 0 160 90"><defs><style>.cls-1{fill:#fff;}</style></defs><title>Logos</title><path id="Nike" class="cls-1" d="M63.2,52.68A5.27,5.27,0,0,1,60,51.62a6.31,6.31,0,0,1-.66-.66,4.1,4.1,0,0,1-.71-1.28,7.37,7.37,0,0,1,.68-5.23,23.29,23.29,0,0,1,4.08-5.78l1.24-1.36-.11.19a12.36,12.36,0,0,0-1.27,2.92,5.24,5.24,0,0,0,.14,3.77,3.69,3.69,0,0,0,1.61,1.61A7.73,7.73,0,0,0,70,46l15.89-4.22,15.63-4.15-30.33,13c-1.64.7-2.08.88-2.85,1.15A14.46,14.46,0,0,1,63.2,52.68Z"/></svg>