<svg id="_01" data-name="01" xmlns="http://www.w3.org/2000/svg" viewBox="0 0 160 90"><defs><style>.cls-1{fill:#fff;}</style></defs><title>Logos</title><path id="nickelodeon" class="cls-1" d="M42.52,42.92a4,4,0,0,0-4,4v3.69h3.07V47a2.13,2.13,0,0,1,.29-1.11.74.74,0,0,1,1.37,0A2.13,2.13,0,0,1,43.49,47v3.63h3.07V47a4,4,0,0,0-4-4m73.4,0a4,4,0,0,0-4,4v3.69h3.07V47a2.13,2.13,0,0,1,.29-1.11.74.74,0,0,1,1.37,0,2.13,2.13,0,0,1,.29,1.11v3.63H120V47a4,4,0,0,0-4-4m-66.06-1a1.71,1.71,0,1,0-2.41,0l.38.38c.63.63.67.8.08,1.39l-.34.34a1.55,1.55,0,0,0-.45,1.1v5.51h3.1V45.13a1.55,1.55,0,0,0-.45-1.1l-.34-.34c-.6-.6-.55-.76.08-1.39Zm5.49,6.32a.71.71,0,0,1-1.38,0,3,3,0,0,1,0-2.57.71.71,0,0,1,1.38,0,2.55,2.55,0,0,1,.26.9h3.07a4,4,0,1,0,0,.76H55.61a2.55,2.55,0,0,1-.26.9m14.21-2a3.12,3.12,0,0,1,.2-.6.86.86,0,0,1,.69-.53c.28,0,.5.2.69.54a2.42,2.42,0,0,1,.19.58H69.56Zm.89-3.32a4,4,0,1,0,2.88,6.87,3.55,3.55,0,0,0,.88-2H71.48s-.38,1-1,1a.84.84,0,0,1-.69-.53,2.47,2.47,0,0,1-.25-.82h4.76a4.06,4.06,0,0,0-1-3.26,3.9,3.9,0,0,0-2.84-1.21m27.81,3.32a3.12,3.12,0,0,1,.2-.6.86.86,0,0,1,.69-.53c.28,0,.5.2.69.54a2.42,2.42,0,0,1,.19.58Zm.89-3.32A4,4,0,1,0,102,49.78a3.55,3.55,0,0,0,.88-2h-2.73s-.38,1-1,1a.84.84,0,0,1-.69-.53,2.47,2.47,0,0,1-.25-.82H103a4.06,4.06,0,0,0-1-3.26,3.9,3.9,0,0,0-2.84-1.21M76.23,39a1.53,1.53,0,0,0-1.53,1.53V50.64h3.07V40.53A1.53,1.53,0,0,0,76.23,39m6,9.78c-.54,0-1-.81-1-1.82s.44-1.82,1-1.82,1,.81,1,1.82-.44,1.82-1,1.82m0-5.86a4,4,0,1,0,4,4,4,4,0,0,0-4-4m25.22,5.86c-.54,0-1-.81-1-1.82s.44-1.82,1-1.82,1,.81,1,1.82-.44,1.82-1,1.82m0-5.86a4,4,0,1,0,4,4,4,4,0,0,0-4-4M90.68,48.78c-.54,0-1-.81-1-1.82s.44-1.82,1-1.82,1,.81,1,1.82-.44,1.82-1,1.82m4-1.82h0V40.53a1.53,1.53,0,0,0-3.07,0V43a4,4,0,0,0-3.83,6.77h0a4,4,0,0,0,5.71,0h0A4,4,0,0,0,94.72,47h0M66.85,50.11a.53.53,0,0,0-.08-.28l-1.68-2.54,1.16-2.11a1.53,1.53,0,1,0-2.64-1.56L62.22,46.1V44.45a1.53,1.53,0,0,0-3.07,0v6.2h3.07V48.22l1.62,2.42h2.48a.53.53,0,0,0,.53-.53m54.06-7.19h0l.29.32.29-.32h0v.6h-.11v-.37l-.19.22h0l-.19-.22v.37h-.11Zm-.42.1h-.18v-.09h.47V43h-.18v.5h-.11Z"/></svg>