<svg xmlns="http://www.w3.org/2000/svg" width="446.48mm" height="205.71mm" viewBox="0 0 1265.6 583.12">
  <title>flow-map</title>
  <rect y="-1.5" width="1265.6" height="586.12" style="fill: #fafafa"/>
  <rect x="605.15" y="40.08" width="47.5" height="31.5" style="fill: #fff;stroke: #808184;stroke-miterlimit: 10"/>
  <rect x="605.45" y="78.58" width="47" height="25" style="fill: none"/>
  <text transform="translate(618.98 83.5)" style="isolation: isolate;font-size: 7px;fill: #6d6e70;font-family: ArialMT, Arial">Player</text>
  <line x1="629.3" y1="95.08" x2="629.3" y2="227.52" style="fill: none;stroke: #808184;stroke-miterlimit: 10"/>
  <line x1="114.99" y1="227.62" x2="1143.6" y2="227.62" style="fill: none;stroke: #808184;stroke-miterlimit: 10"/>
  <rect x="607.59" y="245.42" width="47.5" height="31.5" style="fill: #fff;stroke: #808184;stroke-miterlimit: 10"/>
  <text transform="translate(620.45 288.75)" style="isolation: isolate;font-size: 7px;fill: #6d6e70;font-family: ArialMT, Arial"><tspan style="letter-spacing: -0.11083984375em">T</tspan><tspan x="3.5" y="0">ag list</tspan></text>
  <g>
    <line x1="629.69" y1="227.62" x2="629.69" y2="237.42" style="fill: none;stroke: #808184;stroke-miterlimit: 10"/>
    <polygon points="627.49 236.72 629.69 240.62 631.89 236.72 627.49 236.72" style="fill: #808184"/>
  </g>
  <rect x="1118.73" y="245.42" width="47.5" height="31.5" style="fill: #fff;stroke: #808184;stroke-miterlimit: 10"/>
  <rect x="1118.93" y="283.92" width="47.5" height="25" style="fill: none"/>
  <g style="isolation: isolate">
    <text transform="translate(1123.02 288.75)" style="isolation: isolate;font-size: 7px;fill: #6d6e70;font-family: ArialMT, Arial">End of video</text>
  </g>
  <g>
    <line x1="1142.73" y1="227.62" x2="1142.73" y2="237.42" style="fill: none;stroke: #808184;stroke-miterlimit: 10"/>
    <polygon points="1140.43 236.72 1142.73 240.62 1144.93 236.72 1140.43 236.72" style="fill: #808184"/>
  </g>
  <rect x="1059.63" y="329.12" width="47.5" height="31.5" style="fill: #fff;stroke: #808184;stroke-miterlimit: 10"/>
  <text transform="translate(1072.48 372.52)" style="isolation: isolate;font-size: 7px;fill: #6d6e70;font-family: ArialMT, Arial">Replay</text>
  <rect x="1119.03" y="329.42" width="47.5" height="31.5" style="fill: #fff;stroke: #808184;stroke-miterlimit: 10"/>
  <text transform="translate(1131.06 372.77)" style="isolation: isolate;font-size: 7px;fill: #6d6e70;font-family: ArialMT, Arial">Creator</text>
  <g>
    <line x1="1083.43" y1="312.42" x2="1083.43" y2="322.12" style="fill: none;stroke: #808184;stroke-miterlimit: 10"/>
    <polygon points="1081.23 321.52 1083.43 325.42 1085.73 321.52 1081.23 321.52" style="fill: #808184"/>
  </g>
  <g>
    <line x1="1202.73" y1="312.42" x2="1202.73" y2="322.12" style="fill: none;stroke: #808184;stroke-miterlimit: 10"/>
    <polygon points="1200.53 321.52 1202.73 325.42 1205.03 321.52 1200.53 321.52" style="fill: #808184"/>
  </g>
  <rect x="554.29" y="327.62" width="47.5" height="31.5" style="fill: #fff;stroke: #808184;stroke-miterlimit: 10"/>
  <text transform="translate(559.12 371.02)" style="isolation: isolate;font-size: 7px;fill: #6d6e70;font-family: ArialMT, Arial">Linear order</text>
  <rect x="661.79" y="327.92" width="47.5" height="31.5" style="fill: #fff;stroke: #808184;stroke-miterlimit: 10"/>
  <text transform="translate(660.79 371.27)" style="isolation: isolate;font-size: 7px;fill: #6d6e70;font-family: ArialMT, Arial">Popularity order</text>
  <g>
    <line x1="578.09" y1="310.92" x2="578.09" y2="320.62" style="fill: none;stroke: #808184;stroke-miterlimit: 10"/>
    <polygon points="575.89 320.02 578.09 323.92 580.39 320.02 575.89 320.02" style="fill: #808184"/>
  </g>
  <g>
    <line x1="685.49" y1="310.92" x2="685.49" y2="320.62" style="fill: none;stroke: #808184;stroke-miterlimit: 10"/>
    <polygon points="683.29 320.02 685.49 323.92 687.79 320.02 683.29 320.02" style="fill: #808184"/>
  </g>
  <line x1="578.09" y1="310.92" x2="685.49" y2="310.92" style="fill: none;stroke: #808184;stroke-miterlimit: 10"/>
  <line x1="631.39" y1="302.42" x2="631.39" y2="310.92" style="fill: none;stroke: #808184;stroke-miterlimit: 10"/>
  <rect x="514.19" y="403.22" width="31.9" height="31.5" style="fill: #fff;stroke: #808184;stroke-miterlimit: 10"/>
  <text transform="translate(521.58 446.7)" style="isolation: isolate;font-size: 7px;fill: #6d6e70;font-family: ArialMT, Arial"><tspan style="letter-spacing: -0.11083984375em">T</tspan><tspan x="3.5" y="0">ag 1</tspan></text>
  <text transform="translate(581.98 446.7)" style="isolation: isolate;font-size: 7px;fill: #6d6e70;font-family: ArialMT, Arial"><tspan style="letter-spacing: -0.11083984375em">T</tspan><tspan x="3.5" y="0">ag 2</tspan></text>
  <rect x="574.59" y="403.22" width="31.9" height="31.5" style="fill: #fff;stroke: #808184;stroke-miterlimit: 10"/>
  <g>
    <line x1="530.09" y1="386.92" x2="530.09" y2="396.62" style="fill: none;stroke: #808184;stroke-miterlimit: 10"/>
    <polygon points="527.89 396.02 530.09 399.92 532.39 396.02 527.89 396.02" style="fill: #808184"/>
  </g>
  <line x1="530.09" y1="386.92" x2="608.69" y2="386.92" style="fill: none;stroke: #808184;stroke-miterlimit: 10"/>
  <line x1="575.59" y1="378.42" x2="575.59" y2="386.92" style="fill: none;stroke: #808184;stroke-miterlimit: 10"/>
  <g>
    <line x1="590.59" y1="386.92" x2="590.59" y2="396.62" style="fill: none;stroke: #808184;stroke-miterlimit: 10"/>
    <polygon points="588.29 396.02 590.59 399.92 592.79 396.02 588.29 396.02" style="fill: #808184"/>
  </g>
  <g>
    <line x1="608.49" y1="386.92" x2="608.69" y2="386.92" style="fill: none;stroke: #808184;stroke-linecap: round;stroke-linejoin: round"/>
    <line x1="610.49" y1="386.92" x2="618.79" y2="386.92" style="fill: none;stroke: #808184;stroke-linecap: round;stroke-linejoin: round;stroke-dasharray: 0.4609000086784363,1.8437999486923218"/>
    <line x1="619.79" y1="386.92" x2="619.99" y2="386.92" style="fill: none;stroke: #808184;stroke-linecap: round;stroke-linejoin: round"/>
  </g>
  <g>
    <line x1="590.59" y1="451.92" x2="590.59" y2="461.62" style="fill: none;stroke: #808184;stroke-miterlimit: 10"/>
    <polygon points="588.29 461.02 590.59 464.92 592.79 461.02 588.29 461.02" style="fill: #808184"/>
  </g>
  <g>
    <line x1="528.59" y1="451.92" x2="528.59" y2="461.62" style="fill: none;stroke: #808184;stroke-miterlimit: 10"/>
    <polygon points="526.29 461.02 528.59 464.92 530.79 461.02 526.29 461.02" style="fill: #808184"/>
  </g>
  <rect x="273.4" y="245.62" width="47.5" height="31.5" style="fill: #fff;stroke: #808184;stroke-miterlimit: 10"/>
  <text transform="translate(285.48 289)" style="isolation: isolate;font-size: 7px;fill: #6d6e70;font-family: ArialMT, Arial"><tspan style="letter-spacing: -0.05517578125em">V</tspan><tspan x="4.28" y="0">olume</tspan></text>
  <g>
    <line x1="297.2" y1="227.62" x2="297.2" y2="239.42" style="fill: none;stroke: #808184;stroke-miterlimit: 10"/>
    <polygon points="294.9 238.72 297.2 242.62 299.4 238.72 294.9 238.72" style="fill: #808184"/>
  </g>
  <rect x="413.49" y="245.62" width="47.5" height="31.5" style="fill: #fff;stroke: #808184;stroke-miterlimit: 10"/>
  <text transform="translate(426.35 289)" style="isolation: isolate;font-size: 7px;fill: #6d6e70;font-family: ArialMT, Arial">Quality</text>
  <g>
    <line x1="437.29" y1="227.62" x2="437.29" y2="239.42" style="fill: none;stroke: #808184;stroke-miterlimit: 10"/>
    <polygon points="434.99 238.72 437.29 242.62 439.49 238.72 434.99 238.72" style="fill: #808184"/>
  </g>
  <g>
    <line x1="964.08" y1="302.42" x2="964.08" y2="310.92" style="fill: none;stroke: #808184;stroke-miterlimit: 10"/>
    <rect x="908.58" y="328.32" width="47.5" height="31.5" style="fill: #fff;stroke: #808184;stroke-miterlimit: 10"/>
    <text transform="translate(927.66 371.65)" style="isolation: isolate;font-size: 7px;fill: #6d6e70;font-family: ArialMT, Arial">On</text>
    <rect x="968.08" y="328.52" width="47.5" height="31.5" style="fill: #fff;stroke: #808184;stroke-miterlimit: 10"/>
    <text transform="translate(987.23 371.9)" style="isolation: isolate;font-size: 7px;fill: #6d6e70;font-family: ArialMT, Arial">O<tspan x="5.44" y="0" style="letter-spacing: -0.01806640625em">f</tspan><tspan x="7.26" y="0">f</tspan></text>
    <g>
      <line x1="992.78" y1="311.52" x2="992.78" y2="321.32" style="fill: none;stroke: #808184;stroke-miterlimit: 10"/>
      <polygon points="990.58 320.62 992.78 324.52 994.98 320.62 990.58 320.62" style="fill: #808184"/>
    </g>
    <line x1="932.98" y1="311.52" x2="992.78" y2="311.52" style="fill: none;stroke: #808184;stroke-miterlimit: 10"/>
    <g>
      <line x1="933.08" y1="311.52" x2="933.08" y2="321.32" style="fill: none;stroke: #808184;stroke-miterlimit: 10"/>
      <polygon points="930.78 320.62 933.08 324.52 935.28 320.62 930.78 320.62" style="fill: #808184"/>
    </g>
  </g>
  <line x1="299.15" y1="302.42" x2="299.15" y2="310.92" style="fill: none;stroke: #808184;stroke-miterlimit: 10"/>
  <rect x="243.65" y="328.32" width="47.5" height="31.5" style="fill: #fff;stroke: #808184;stroke-miterlimit: 10"/>
  <text transform="translate(262.73 371.65)" style="isolation: isolate;font-size: 7px;fill: #6d6e70;font-family: ArialMT, Arial">On</text>
  <rect x="303.15" y="328.52" width="47.5" height="31.5" style="fill: #fff;stroke: #808184;stroke-miterlimit: 10"/>
  <text transform="translate(322.3 371.9)" style="isolation: isolate;font-size: 7px;fill: #6d6e70;font-family: ArialMT, Arial">O<tspan x="5.44" y="0" style="letter-spacing: -0.01806640625em">f</tspan><tspan x="7.26" y="0">f</tspan></text>
  <g>
    <line x1="327.85" y1="311.52" x2="327.85" y2="321.32" style="fill: none;stroke: #808184;stroke-miterlimit: 10"/>
    <polygon points="325.65 320.62 327.85 324.52 330.05 320.62 325.65 320.62" style="fill: #808184"/>
  </g>
  <line x1="268.05" y1="311.52" x2="327.85" y2="311.52" style="fill: none;stroke: #808184;stroke-miterlimit: 10"/>
  <g>
    <line x1="268.15" y1="311.52" x2="268.15" y2="321.32" style="fill: none;stroke: #808184;stroke-miterlimit: 10"/>
    <polygon points="265.85 320.62 268.15 324.52 270.35 320.62 265.85 320.62" style="fill: #808184"/>
  </g>
  <g>
    <line x1="174.74" y1="445.72" x2="174.74" y2="455.42" style="fill: none;stroke: #808184;stroke-miterlimit: 10"/>
    <polygon points="172.54 454.82 174.74 458.72 177.04 454.82 172.54 454.82" style="fill: #808184"/>
  </g>
  <rect x="91.59" y="319.92" width="47.5" height="31.5" style="fill: #fff;stroke: #808184;stroke-miterlimit: 10"/>
  <text transform="translate(104.28 363.3)" style="isolation: isolate;font-size: 7px;fill: #6d6e70;font-family: ArialMT, Arial">Pause</text>
  <rect x="31.44" y="395.62" width="47.5" height="31.5" style="fill: #fff;stroke: #808184;stroke-miterlimit: 10"/>
  <text transform="translate(43.32 439.03)" style="isolation: isolate;font-size: 7px;fill: #6d6e70;font-family: ArialMT, Arial">Paused</text>
  <rect x="151.04" y="395.62" width="47.5" height="31.5" style="fill: #fff;stroke: #808184;stroke-miterlimit: 10"/>
  <text transform="translate(157.09 439.03)" style="isolation: isolate;font-size: 7px;fill: #6d6e70;font-family: ArialMT, Arial">Screenshot</text>
  <rect x="151.04" y="464.82" width="47.5" height="31.5" style="fill: #fff;stroke: #808184;stroke-miterlimit: 10"/>
  <text transform="translate(165.45 508.23)" style="isolation: isolate;font-size: 7px;fill: #6d6e70;font-family: ArialMT, Arial">Share</text>
  <rect x="90.48" y="395.62" width="47.5" height="31.5" style="fill: #fff;stroke: #808184;stroke-miterlimit: 10"/>
  <text transform="translate(102.75 439.03)" style="isolation: isolate;font-size: 7px;fill: #6d6e70;font-family: ArialMT, Arial">Playing</text>
  <g>
    <line x1="54.74" y1="378.92" x2="54.74" y2="388.62" style="fill: none;stroke: #808184;stroke-miterlimit: 10"/>
    <polygon points="52.44 388.02 54.74 391.92 56.94 388.02 52.44 388.02" style="fill: #808184"/>
  </g>
  <g>
    <line x1="115.14" y1="378.92" x2="115.14" y2="388.62" style="fill: none;stroke: #808184;stroke-miterlimit: 10"/>
    <polygon points="112.84 388.02 115.14 391.92 117.34 388.02 112.84 388.02" style="fill: #808184"/>
  </g>
  <g>
    <line x1="174.84" y1="378.92" x2="174.84" y2="388.62" style="fill: none;stroke: #808184;stroke-miterlimit: 10"/>
    <polygon points="172.54 388.02 174.84 391.92 177.04 388.02 172.54 388.02" style="fill: #808184"/>
  </g>
  <line x1="54.74" y1="378.92" x2="174.84" y2="378.92" style="fill: none;stroke: #808184;stroke-linecap: round;stroke-linejoin: round"/>
  <line x1="114.99" y1="370.42" x2="114.99" y2="378.92" style="fill: none;stroke: #808184;stroke-miterlimit: 10"/>
  <g>
    <line x1="115.39" y1="302.42" x2="115.39" y2="314.22" style="fill: none;stroke: #808184;stroke-miterlimit: 10"/>
    <polygon points="113.19 313.52 115.39 317.42 117.69 313.52 113.19 313.52" style="fill: #808184"/>
  </g>
  <rect x="90.89" y="245.12" width="47.5" height="31.5" style="fill: #fff;stroke: #808184;stroke-miterlimit: 10"/>
  <text transform="translate(107.83 288.5)" style="isolation: isolate;font-size: 7px;fill: #6d6e70;font-family: ArialMT, Arial">Play</text>
  <g>
    <line x1="114.69" y1="227.62" x2="114.69" y2="239.42" style="fill: none;stroke: #808184;stroke-miterlimit: 10"/>
    <polygon points="112.49 238.72 114.69 242.62 116.99 238.72 112.49 238.72" style="fill: #808184"/>
  </g>
  <rect x="792.74" y="246.62" width="47.5" height="31.5" style="fill: #fff;stroke: #808184;stroke-miterlimit: 10"/>
  <text transform="translate(807.15 290)" style="isolation: isolate;font-size: 7px;fill: #6d6e70;font-family: ArialMT, Arial">Share</text>
  <g>
    <line x1="816.84" y1="227.62" x2="816.84" y2="239.42" style="fill: none;stroke: #808184;stroke-miterlimit: 10"/>
    <polygon points="814.64 238.72 816.84 242.62 819.14 238.72 814.64 238.72" style="fill: #808184"/>
  </g>
  <line x1="1083.33" y1="312.42" x2="1202.73" y2="312.42" style="fill: none;stroke: #808184;stroke-miterlimit: 10"/>
  <g>
    <line x1="1143.03" y1="302.42" x2="1143.03" y2="322.12" style="fill: none;stroke: #808184;stroke-miterlimit: 10"/>
    <polygon points="1140.83 321.52 1143.03 325.42 1145.33 321.52 1140.83 321.52" style="fill: #808184"/>
  </g>
  <rect x="1179.13" y="329.62" width="47.5" height="31.5" style="fill: #fff;stroke: #808184;stroke-miterlimit: 10"/>
  <text transform="translate(1189.46 373.03)" style="isolation: isolate;font-size: 7px;fill: #6d6e70;font-family: ArialMT, Arial">Wirewax</text>
  <rect x="1130.16" y="397.72" width="25.23" height="16.59" style="fill: #fff;stroke: #808184;stroke-miterlimit: 10"/>
  <rect x="1127.23" y="400.8" width="31.1" height="20.45" style="fill: #fff;stroke: #808184;stroke-miterlimit: 10"/>
  <text transform="translate(1122.93 444.7)" style="isolation: isolate;font-size: 7px;fill: #6d6e70;font-family: ArialMT, Arial">Other videos</text>
  <rect x="1121.78" y="404.08" width="41.99" height="27.6" style="fill: #fff;stroke: #808184;stroke-miterlimit: 10"/>
  <g>
    <line x1="1142.83" y1="379.12" x2="1142.83" y2="388.82" style="fill: none;stroke: #808184;stroke-miterlimit: 10"/>
    <polygon points="1140.53 388.22 1142.83 392.12 1145.03 388.22 1140.53 388.22" style="fill: #808184"/>
  </g>
  <g>
    <line x1="1202.93" y1="379.12" x2="1202.93" y2="388.82" style="fill: none;stroke: #808184;stroke-miterlimit: 10"/>
    <polygon points="1200.63 388.22 1202.93 392.12 1205.13 388.22 1200.63 388.22" style="fill: #808184"/>
  </g>
  <rect x="940.88" y="246.62" width="47.5" height="31.5" style="fill: #fff;stroke: #808184;stroke-miterlimit: 10"/>
  <text transform="translate(947.51 290)" style="isolation: isolate;font-size: 7px;fill: #6d6e70;font-family: ArialMT, Arial">Full screen</text>
  <g>
    <line x1="964.98" y1="227.62" x2="964.98" y2="239.42" style="fill: none;stroke: #808184;stroke-miterlimit: 10"/>
    <polygon points="962.78 238.72 964.98 242.62 967.28 238.72 962.78 238.72" style="fill: #808184"/>
  </g>
  <line x1="815.94" y1="302.42" x2="815.94" y2="310.92" style="fill: none;stroke: #808184;stroke-miterlimit: 10"/>
  <rect x="760.44" y="328.32" width="47.5" height="31.5" style="fill: #fff;stroke: #808184;stroke-miterlimit: 10"/>
  <text transform="translate(771.94 371.65)" style="isolation: isolate;font-size: 7px;fill: #6d6e70;font-family: ArialMT, Arial">Embed</text>
  <rect x="819.94" y="328.52" width="47.5" height="31.5" style="fill: #fff;stroke: #808184;stroke-miterlimit: 10"/>
  <text transform="translate(830.7 371.9)" style="isolation: isolate;font-size: 7px;fill: #6d6e70;font-family: ArialMT, Arial">Copy link</text>
  <g>
    <line x1="844.64" y1="311.52" x2="844.64" y2="321.32" style="fill: none;stroke: #808184;stroke-miterlimit: 10"/>
    <polygon points="842.44 320.62 844.64 324.52 846.84 320.62 842.44 320.62" style="fill: #808184"/>
  </g>
  <line x1="784.84" y1="311.52" x2="844.64" y2="311.52" style="fill: none;stroke: #808184;stroke-miterlimit: 10"/>
  <g>
    <line x1="784.94" y1="311.52" x2="784.94" y2="321.32" style="fill: none;stroke: #808184;stroke-miterlimit: 10"/>
    <polygon points="782.64 320.62 784.94 324.52 787.14 320.62 782.64 320.62" style="fill: #808184"/>
  </g>
  <line x1="964.08" y1="302.42" x2="964.08" y2="310.92" style="fill: none;stroke: #808184;stroke-miterlimit: 10"/>
  <rect x="908.58" y="328.32" width="47.5" height="31.5" style="fill: #fff;stroke: #808184;stroke-miterlimit: 10"/>
  <text transform="translate(927.66 371.65)" style="isolation: isolate;font-size: 7px;fill: #6d6e70;font-family: ArialMT, Arial">On</text>
  <rect x="968.08" y="328.52" width="47.5" height="31.5" style="fill: #fff;stroke: #808184;stroke-miterlimit: 10"/>
  <text transform="translate(987.23 371.9)" style="isolation: isolate;font-size: 7px;fill: #6d6e70;font-family: ArialMT, Arial">O<tspan x="5.44" y="0" style="letter-spacing: -0.01806640625em">f</tspan><tspan x="7.26" y="0">f</tspan></text>
  <g>
    <line x1="992.78" y1="311.52" x2="992.78" y2="321.32" style="fill: none;stroke: #808184;stroke-miterlimit: 10"/>
    <polygon points="990.58 320.62 992.78 324.52 994.98 320.62 990.58 320.62" style="fill: #808184"/>
  </g>
  <line x1="932.98" y1="311.52" x2="992.78" y2="311.52" style="fill: none;stroke: #808184;stroke-miterlimit: 10"/>
  <g>
    <line x1="933.08" y1="311.52" x2="933.08" y2="321.32" style="fill: none;stroke: #808184;stroke-miterlimit: 10"/>
    <polygon points="930.78 320.62 933.08 324.52 935.28 320.62 930.78 320.62" style="fill: #808184"/>
  </g>
  <g>
    <rect x="254.78" y="397.75" width="25.23" height="16.59" style="fill: #fff;stroke: #808184;stroke-miterlimit: 10"/>
    <rect x="251.85" y="400.83" width="31.1" height="20.45" style="fill: #fff;stroke: #808184;stroke-miterlimit: 10"/>
    <text transform="translate(257.28 444.72)" style="isolation: isolate;font-size: 7px;fill: #6d6e70;font-family: ArialMT, Arial">Levels</text>
    <rect x="246.41" y="404.11" width="41.99" height="27.6" style="fill: #fff;stroke: #808184;stroke-miterlimit: 10"/>
    <g>
      <line x1="267.45" y1="379.15" x2="267.45" y2="388.85" style="fill: none;stroke: #808184;stroke-miterlimit: 10"/>
      <polygon points="265.15 388.25 267.45 392.15 269.65 388.25 265.15 388.25" style="fill: #808184"/>
    </g>
  </g>
  <g>
    <rect x="424.62" y="321.02" width="25.23" height="16.59" style="fill: #fff;stroke: #808184;stroke-miterlimit: 10"/>
    <rect x="421.69" y="324.1" width="31.1" height="20.45" style="fill: #fff;stroke: #808184;stroke-miterlimit: 10"/>
    <text transform="translate(427.12 368)" style="isolation: isolate;font-size: 7px;fill: #6d6e70;font-family: ArialMT, Arial">Levels</text>
    <rect x="416.24" y="327.38" width="41.99" height="27.6" style="fill: #fff;stroke: #808184;stroke-miterlimit: 10"/>
    <g>
      <line x1="437.29" y1="302.42" x2="437.29" y2="312.12" style="fill: none;stroke: #808184;stroke-miterlimit: 10"/>
      <polygon points="434.99 311.52 437.29 315.42 439.49 311.52 434.99 311.52" style="fill: #808184"/>
    </g>
  </g>
  <rect x="475.52" y="488.66" width="47.5" height="31.5" style="fill: #fff;stroke: #808184;stroke-miterlimit: 10"/>
  <text transform="translate(492.46 532.07)" style="isolation: isolate;font-size: 7px;fill: #6d6e70;font-family: ArialMT, Arial">Play</text>
  <rect x="595.12" y="488.66" width="47.5" height="31.5" style="fill: #fff;stroke: #808184;stroke-miterlimit: 10"/>
  <text transform="translate(607.2 532.07)" style="isolation: isolate;font-size: 7px;fill: #6d6e70;font-family: ArialMT, Arial">Interact</text>
  <rect x="534.55" y="488.66" width="47.5" height="31.5" style="fill: #fff;stroke: #808184;stroke-miterlimit: 10"/>
  <text transform="translate(548.96 532.07)" style="isolation: isolate;font-size: 7px;fill: #6d6e70;font-family: ArialMT, Arial">Share</text>
  <g>
    <line x1="498.82" y1="471.96" x2="498.82" y2="481.66" style="fill: none;stroke: #808184;stroke-miterlimit: 10"/>
    <polygon points="496.52 481.06 498.82 484.96 501.02 481.06 496.52 481.06" style="fill: #808184"/>
  </g>
  <g>
    <line x1="559.22" y1="471.96" x2="559.22" y2="481.66" style="fill: none;stroke: #808184;stroke-miterlimit: 10"/>
    <polygon points="556.92 481.06 559.22 484.96 561.42 481.06 556.92 481.06" style="fill: #808184"/>
  </g>
  <g>
    <line x1="618.92" y1="471.96" x2="618.92" y2="481.66" style="fill: none;stroke: #808184;stroke-miterlimit: 10"/>
    <polygon points="616.62 481.06 618.92 484.96 621.12 481.06 616.62 481.06" style="fill: #808184"/>
  </g>
  <line x1="498.82" y1="471.96" x2="618.92" y2="471.96" style="fill: none;stroke: #808184;stroke-linecap: round;stroke-linejoin: round"/>
  <rect x="634.27" y="403.22" width="31.9" height="31.5" style="fill: #fff;stroke: #808184;stroke-miterlimit: 10"/>
  <text transform="translate(641.66 446.7)" style="isolation: isolate;font-size: 7px;fill: #6d6e70;font-family: ArialMT, Arial"><tspan style="letter-spacing: -0.11083984375em">T</tspan><tspan x="3.5" y="0">ag 1</tspan></text>
  <text transform="translate(702.06 446.7)" style="isolation: isolate;font-size: 7px;fill: #6d6e70;font-family: ArialMT, Arial"><tspan style="letter-spacing: -0.11083984375em">T</tspan><tspan x="3.5" y="0">ag 2</tspan></text>
  <rect x="694.67" y="403.22" width="31.9" height="31.5" style="fill: #fff;stroke: #808184;stroke-miterlimit: 10"/>
  <g>
    <line x1="650.17" y1="386.92" x2="650.17" y2="396.62" style="fill: none;stroke: #808184;stroke-miterlimit: 10"/>
    <polygon points="647.97 396.02 650.17 399.92 652.47 396.02 647.97 396.02" style="fill: #808184"/>
  </g>
  <line x1="650.17" y1="386.92" x2="728.77" y2="386.92" style="fill: none;stroke: #808184;stroke-miterlimit: 10"/>
  <line x1="695.67" y1="378.42" x2="695.67" y2="386.92" style="fill: none;stroke: #808184;stroke-miterlimit: 10"/>
  <g>
    <line x1="710.67" y1="386.92" x2="710.67" y2="396.62" style="fill: none;stroke: #808184;stroke-miterlimit: 10"/>
    <polygon points="708.37 396.02 710.67 399.92 712.87 396.02 708.37 396.02" style="fill: #808184"/>
  </g>
  <g>
    <line x1="728.57" y1="386.92" x2="728.77" y2="386.92" style="fill: none;stroke: #808184;stroke-linecap: round;stroke-linejoin: round"/>
    <line x1="730.57" y1="386.92" x2="738.87" y2="386.92" style="fill: none;stroke: #808184;stroke-linecap: round;stroke-linejoin: round;stroke-dasharray: 0.4609000086784363,1.8437999486923218"/>
    <line x1="739.87" y1="386.92" x2="740.07" y2="386.92" style="fill: none;stroke: #808184;stroke-linecap: round;stroke-linejoin: round"/>
  </g>
  <g>
    <line x1="710.67" y1="451.92" x2="710.67" y2="461.62" style="fill: none;stroke: #808184;stroke-miterlimit: 10"/>
    <polygon points="708.37 461.02 710.67 464.92 712.87 461.02 708.37 461.02" style="fill: #808184"/>
  </g>
  <g>
    <line x1="648.67" y1="451.92" x2="648.67" y2="461.62" style="fill: none;stroke: #808184;stroke-miterlimit: 10"/>
    <polygon points="646.37 461.02 648.67 464.92 650.87 461.02 646.37 461.02" style="fill: #808184"/>
  </g>
  <rect x="715.19" y="488.66" width="47.5" height="31.5" style="fill: #fff;stroke: #808184;stroke-miterlimit: 10"/>
  <text transform="translate(727.27 532.07)" style="isolation: isolate;font-size: 7px;fill: #6d6e70;font-family: ArialMT, Arial">Interact</text>
  <rect x="654.63" y="488.66" width="47.5" height="31.5" style="fill: #fff;stroke: #808184;stroke-miterlimit: 10"/>
  <text transform="translate(669.04 532.07)" style="isolation: isolate;font-size: 7px;fill: #6d6e70;font-family: ArialMT, Arial">Share</text>
  <g>
    <line x1="618.89" y1="471.96" x2="618.89" y2="481.66" style="fill: none;stroke: #808184;stroke-miterlimit: 10"/>
    <polygon points="616.59 481.06 618.89 484.96 621.09 481.06 616.59 481.06" style="fill: #808184"/>
  </g>
  <g>
    <line x1="679.29" y1="471.96" x2="679.29" y2="481.66" style="fill: none;stroke: #808184;stroke-miterlimit: 10"/>
    <polygon points="676.99 481.06 679.29 484.96 681.49 481.06 676.99 481.06" style="fill: #808184"/>
  </g>
  <g>
    <line x1="738.99" y1="471.96" x2="738.99" y2="481.66" style="fill: none;stroke: #808184;stroke-miterlimit: 10"/>
    <polygon points="736.69 481.06 738.99 484.96 741.19 481.06 736.69 481.06" style="fill: #808184"/>
  </g>
  <line x1="618.89" y1="471.96" x2="738.99" y2="471.96" style="fill: none;stroke: #808184;stroke-linecap: round;stroke-linejoin: round"/>
  <text transform="translate(104.28 60.08)" style="font-size: 16px;font-family: SFUIText-Regular, SF UI Text">New player journey map</text>
  <text transform="translate(104.28 83.08)" style="opacity: 0.5;font-size: 13px;font-family: SFUIText-Regular, SF UI Text">Draft 1.3</text>
</svg>
